<mxfile host="app.diagrams.net" agent="Mozilla/5.0 (Windows NT 10.0; Win64; x64) AppleWebKit/537.36 (KHTML, like Gecko) Chrome/136.0.0.0 Safari/537.36" version="27.0.9">
  <diagram name="第 1 页" id="XNdrPRAzqTejw9C0-F5l">
    <mxGraphModel dx="3652" dy="2651" grid="1" gridSize="10" guides="1" tooltips="1" connect="1" arrows="1" fold="1" page="1" pageScale="1" pageWidth="827" pageHeight="1169" math="1" shadow="0">
      <root>
        <mxCell id="0" />
        <mxCell id="1" parent="0" />
        <mxCell id="PyTM0OaPz90ZbL3KX4yQ-135" style="edgeStyle=orthogonalEdgeStyle;rounded=0;orthogonalLoop=1;jettySize=auto;html=1;exitX=1;exitY=0.5;exitDx=0;exitDy=0;entryX=0;entryY=0.5;entryDx=0;entryDy=0;" parent="1" source="PyTM0OaPz90ZbL3KX4yQ-125" target="PyTM0OaPz90ZbL3KX4yQ-129" edge="1">
          <mxGeometry relative="1" as="geometry" />
        </mxCell>
        <mxCell id="PyTM0OaPz90ZbL3KX4yQ-125" value="" style="rounded=1;whiteSpace=wrap;html=1;fillColor=none;dashed=1;dashPattern=8 8;" parent="1" vertex="1">
          <mxGeometry x="-80" y="850" width="140" height="30" as="geometry" />
        </mxCell>
        <mxCell id="PyTM0OaPz90ZbL3KX4yQ-81" style="edgeStyle=orthogonalEdgeStyle;rounded=0;orthogonalLoop=1;jettySize=auto;html=1;exitX=0.75;exitY=1;exitDx=0;exitDy=0;entryX=0;entryY=0.5;entryDx=0;entryDy=0;dashed=1;" parent="1" source="PyTM0OaPz90ZbL3KX4yQ-71" target="PyTM0OaPz90ZbL3KX4yQ-49" edge="1">
          <mxGeometry relative="1" as="geometry">
            <mxPoint x="365.8333333333335" y="570" as="targetPoint" />
          </mxGeometry>
        </mxCell>
        <mxCell id="PyTM0OaPz90ZbL3KX4yQ-83" style="edgeStyle=orthogonalEdgeStyle;rounded=0;orthogonalLoop=1;jettySize=auto;html=1;exitX=0.75;exitY=1;exitDx=0;exitDy=0;entryX=0;entryY=0.5;entryDx=0;entryDy=0;dashed=1;" parent="1" source="PyTM0OaPz90ZbL3KX4yQ-72" target="PyTM0OaPz90ZbL3KX4yQ-49" edge="1">
          <mxGeometry relative="1" as="geometry">
            <mxPoint x="385" y="550" as="targetPoint" />
          </mxGeometry>
        </mxCell>
        <mxCell id="PyTM0OaPz90ZbL3KX4yQ-72" value="" style="rounded=1;whiteSpace=wrap;html=1;fillColor=none;dashed=1;" parent="1" vertex="1">
          <mxGeometry x="70" y="-38" width="420" height="500" as="geometry" />
        </mxCell>
        <mxCell id="PyTM0OaPz90ZbL3KX4yQ-71" value="" style="rounded=1;whiteSpace=wrap;html=1;fillColor=none;dashed=1;" parent="1" vertex="1">
          <mxGeometry x="51" y="-22" width="420" height="500" as="geometry" />
        </mxCell>
        <mxCell id="PyTM0OaPz90ZbL3KX4yQ-73" style="edgeStyle=orthogonalEdgeStyle;rounded=0;orthogonalLoop=1;jettySize=auto;html=1;exitX=1;exitY=0.5;exitDx=0;exitDy=0;entryX=0;entryY=0.5;entryDx=0;entryDy=0;" parent="1" source="PyTM0OaPz90ZbL3KX4yQ-72" target="PyTM0OaPz90ZbL3KX4yQ-34" edge="1">
          <mxGeometry relative="1" as="geometry" />
        </mxCell>
        <mxCell id="PyTM0OaPz90ZbL3KX4yQ-39" value="" style="rounded=1;whiteSpace=wrap;html=1;fillColor=none;dashed=1;" parent="1" vertex="1">
          <mxGeometry x="-630" y="-335" width="460" height="470" as="geometry" />
        </mxCell>
        <mxCell id="PyTM0OaPz90ZbL3KX4yQ-84" style="edgeStyle=orthogonalEdgeStyle;rounded=0;orthogonalLoop=1;jettySize=auto;html=1;exitX=0.75;exitY=1;exitDx=0;exitDy=0;entryX=0;entryY=0.5;entryDx=0;entryDy=0;" parent="1" source="PyTM0OaPz90ZbL3KX4yQ-37" target="PyTM0OaPz90ZbL3KX4yQ-49" edge="1">
          <mxGeometry relative="1" as="geometry">
            <mxPoint x="345" y="560" as="targetPoint" />
          </mxGeometry>
        </mxCell>
        <mxCell id="PyTM0OaPz90ZbL3KX4yQ-37" value="" style="rounded=1;whiteSpace=wrap;html=1;fillColor=default;" parent="1" vertex="1">
          <mxGeometry x="30" y="-5" width="420" height="505" as="geometry" />
        </mxCell>
        <mxCell id="PyTM0OaPz90ZbL3KX4yQ-51" style="edgeStyle=orthogonalEdgeStyle;rounded=0;orthogonalLoop=1;jettySize=auto;html=1;exitX=0.5;exitY=0;exitDx=0;exitDy=0;entryX=0.5;entryY=1;entryDx=0;entryDy=0;" parent="1" source="PyTM0OaPz90ZbL3KX4yQ-1" target="PyTM0OaPz90ZbL3KX4yQ-5" edge="1">
          <mxGeometry relative="1" as="geometry" />
        </mxCell>
        <mxCell id="PyTM0OaPz90ZbL3KX4yQ-69" style="edgeStyle=orthogonalEdgeStyle;rounded=0;orthogonalLoop=1;jettySize=auto;html=1;exitX=1;exitY=0.5;exitDx=0;exitDy=0;entryX=0;entryY=0.5;entryDx=0;entryDy=0;" parent="1" source="PyTM0OaPz90ZbL3KX4yQ-1" target="PyTM0OaPz90ZbL3KX4yQ-33" edge="1">
          <mxGeometry relative="1" as="geometry" />
        </mxCell>
        <mxCell id="PyTM0OaPz90ZbL3KX4yQ-75" style="edgeStyle=orthogonalEdgeStyle;rounded=0;orthogonalLoop=1;jettySize=auto;html=1;exitX=1;exitY=0.5;exitDx=0;exitDy=0;entryX=0;entryY=0.5;entryDx=0;entryDy=0;" parent="1" source="PyTM0OaPz90ZbL3KX4yQ-1" target="PyTM0OaPz90ZbL3KX4yQ-44" edge="1">
          <mxGeometry relative="1" as="geometry">
            <Array as="points">
              <mxPoint x="510" y="475" />
              <mxPoint x="510" y="295" />
            </Array>
          </mxGeometry>
        </mxCell>
        <mxCell id="PyTM0OaPz90ZbL3KX4yQ-85" style="edgeStyle=orthogonalEdgeStyle;rounded=0;orthogonalLoop=1;jettySize=auto;html=1;exitX=0.5;exitY=1;exitDx=0;exitDy=0;entryX=0.5;entryY=1;entryDx=0;entryDy=0;" parent="1" source="PyTM0OaPz90ZbL3KX4yQ-1" target="PyTM0OaPz90ZbL3KX4yQ-49" edge="1">
          <mxGeometry relative="1" as="geometry">
            <mxPoint x="250" y="570" as="targetPoint" />
          </mxGeometry>
        </mxCell>
        <mxCell id="PyTM0OaPz90ZbL3KX4yQ-1" value="X" style="rounded=0;whiteSpace=wrap;html=1;" parent="1" vertex="1">
          <mxGeometry x="225" y="460" width="50" height="30" as="geometry" />
        </mxCell>
        <mxCell id="PyTM0OaPz90ZbL3KX4yQ-52" style="edgeStyle=orthogonalEdgeStyle;rounded=0;orthogonalLoop=1;jettySize=auto;html=1;exitX=0.5;exitY=0;exitDx=0;exitDy=0;entryX=0.5;entryY=1;entryDx=0;entryDy=0;" parent="1" source="PyTM0OaPz90ZbL3KX4yQ-5" target="PyTM0OaPz90ZbL3KX4yQ-6" edge="1">
          <mxGeometry relative="1" as="geometry">
            <Array as="points">
              <mxPoint x="250" y="380" />
              <mxPoint x="130" y="380" />
            </Array>
          </mxGeometry>
        </mxCell>
        <mxCell id="PyTM0OaPz90ZbL3KX4yQ-56" style="edgeStyle=orthogonalEdgeStyle;rounded=0;orthogonalLoop=1;jettySize=auto;html=1;exitX=0.5;exitY=0;exitDx=0;exitDy=0;entryX=0.5;entryY=1;entryDx=0;entryDy=0;" parent="1" source="PyTM0OaPz90ZbL3KX4yQ-5" target="PyTM0OaPz90ZbL3KX4yQ-18" edge="1">
          <mxGeometry relative="1" as="geometry" />
        </mxCell>
        <mxCell id="PyTM0OaPz90ZbL3KX4yQ-57" style="edgeStyle=orthogonalEdgeStyle;rounded=0;orthogonalLoop=1;jettySize=auto;html=1;exitX=0.5;exitY=0;exitDx=0;exitDy=0;entryX=0.5;entryY=1;entryDx=0;entryDy=0;" parent="1" source="PyTM0OaPz90ZbL3KX4yQ-5" target="PyTM0OaPz90ZbL3KX4yQ-20" edge="1">
          <mxGeometry relative="1" as="geometry">
            <Array as="points">
              <mxPoint x="250" y="380" />
              <mxPoint x="370" y="380" />
            </Array>
          </mxGeometry>
        </mxCell>
        <mxCell id="PyTM0OaPz90ZbL3KX4yQ-5" value="STL decomposition" style="rounded=0;whiteSpace=wrap;html=1;fillColor=#f0a30a;strokeColor=#BD7000;fontColor=#000000;" parent="1" vertex="1">
          <mxGeometry x="190" y="390" width="120" height="40" as="geometry" />
        </mxCell>
        <mxCell id="PyTM0OaPz90ZbL3KX4yQ-60" style="edgeStyle=orthogonalEdgeStyle;rounded=0;orthogonalLoop=1;jettySize=auto;html=1;exitX=0.5;exitY=0;exitDx=0;exitDy=0;entryX=0.5;entryY=1;entryDx=0;entryDy=0;" parent="1" source="PyTM0OaPz90ZbL3KX4yQ-29" target="PyTM0OaPz90ZbL3KX4yQ-32" edge="1">
          <mxGeometry relative="1" as="geometry" />
        </mxCell>
        <mxCell id="PyTM0OaPz90ZbL3KX4yQ-29" value="Transformer block" style="rounded=0;whiteSpace=wrap;html=1;fillColor=#fff2cc;strokeColor=#d6b656;" parent="1" vertex="1">
          <mxGeometry x="77.5" y="230" width="105" height="30" as="geometry" />
        </mxCell>
        <mxCell id="PyTM0OaPz90ZbL3KX4yQ-61" style="edgeStyle=orthogonalEdgeStyle;rounded=0;orthogonalLoop=1;jettySize=auto;html=1;exitX=0.5;exitY=0;exitDx=0;exitDy=0;entryX=0.5;entryY=1;entryDx=0;entryDy=0;" parent="1" source="PyTM0OaPz90ZbL3KX4yQ-30" target="PyTM0OaPz90ZbL3KX4yQ-32" edge="1">
          <mxGeometry relative="1" as="geometry" />
        </mxCell>
        <mxCell id="PyTM0OaPz90ZbL3KX4yQ-30" value="Transformer block" style="rounded=0;whiteSpace=wrap;html=1;fillColor=#fff2cc;strokeColor=#d6b656;" parent="1" vertex="1">
          <mxGeometry x="195" y="230" width="110" height="30" as="geometry" />
        </mxCell>
        <mxCell id="PyTM0OaPz90ZbL3KX4yQ-62" style="edgeStyle=orthogonalEdgeStyle;rounded=0;orthogonalLoop=1;jettySize=auto;html=1;exitX=0.5;exitY=0;exitDx=0;exitDy=0;entryX=0.5;entryY=1;entryDx=0;entryDy=0;" parent="1" source="PyTM0OaPz90ZbL3KX4yQ-31" target="PyTM0OaPz90ZbL3KX4yQ-32" edge="1">
          <mxGeometry relative="1" as="geometry" />
        </mxCell>
        <mxCell id="PyTM0OaPz90ZbL3KX4yQ-31" value="Transformer block" style="rounded=0;whiteSpace=wrap;html=1;fillColor=#fff2cc;strokeColor=#d6b656;" parent="1" vertex="1">
          <mxGeometry x="315" y="230" width="110" height="30" as="geometry" />
        </mxCell>
        <mxCell id="PyTM0OaPz90ZbL3KX4yQ-63" style="edgeStyle=orthogonalEdgeStyle;rounded=0;orthogonalLoop=1;jettySize=auto;html=1;exitX=0.5;exitY=0;exitDx=0;exitDy=0;entryX=0.5;entryY=1;entryDx=0;entryDy=0;" parent="1" source="PyTM0OaPz90ZbL3KX4yQ-32" target="PyTM0OaPz90ZbL3KX4yQ-35" edge="1">
          <mxGeometry relative="1" as="geometry" />
        </mxCell>
        <mxCell id="PyTM0OaPz90ZbL3KX4yQ-66" style="edgeStyle=orthogonalEdgeStyle;rounded=0;orthogonalLoop=1;jettySize=auto;html=1;exitX=0.5;exitY=0;exitDx=0;exitDy=0;entryX=0;entryY=0.5;entryDx=0;entryDy=0;" parent="1" source="PyTM0OaPz90ZbL3KX4yQ-32" target="PyTM0OaPz90ZbL3KX4yQ-36" edge="1">
          <mxGeometry relative="1" as="geometry">
            <Array as="points">
              <mxPoint x="250" y="150" />
              <mxPoint x="170" y="150" />
              <mxPoint x="170" y="65" />
            </Array>
          </mxGeometry>
        </mxCell>
        <mxCell id="PyTM0OaPz90ZbL3KX4yQ-32" value="Add &amp;amp; LayerNorm" style="rounded=0;whiteSpace=wrap;html=1;fillColor=#f5f5f5;fontColor=#333333;strokeColor=#666666;" parent="1" vertex="1">
          <mxGeometry x="190" y="160" width="120" height="30" as="geometry" />
        </mxCell>
        <mxCell id="PyTM0OaPz90ZbL3KX4yQ-70" style="edgeStyle=orthogonalEdgeStyle;rounded=0;orthogonalLoop=1;jettySize=auto;html=1;exitX=0.5;exitY=0;exitDx=0;exitDy=0;entryX=0.5;entryY=1;entryDx=0;entryDy=0;" parent="1" source="PyTM0OaPz90ZbL3KX4yQ-33" target="PyTM0OaPz90ZbL3KX4yQ-45" edge="1">
          <mxGeometry relative="1" as="geometry" />
        </mxCell>
        <mxCell id="PyTM0OaPz90ZbL3KX4yQ-33" value="Density ratio change point detection" style="rounded=0;whiteSpace=wrap;html=1;fillColor=#b0e3e6;strokeColor=#0e8088;" parent="1" vertex="1">
          <mxGeometry x="542" y="455" width="140" height="40" as="geometry" />
        </mxCell>
        <mxCell id="PyTM0OaPz90ZbL3KX4yQ-76" style="edgeStyle=orthogonalEdgeStyle;rounded=0;orthogonalLoop=1;jettySize=auto;html=1;exitX=0.5;exitY=1;exitDx=0;exitDy=0;entryX=0.5;entryY=0;entryDx=0;entryDy=0;" parent="1" source="PyTM0OaPz90ZbL3KX4yQ-34" target="PyTM0OaPz90ZbL3KX4yQ-44" edge="1">
          <mxGeometry relative="1" as="geometry" />
        </mxCell>
        <mxCell id="PyTM0OaPz90ZbL3KX4yQ-34" value="Reconstructed X" style="rounded=0;whiteSpace=wrap;html=1;fillColor=#fad7ac;strokeColor=#b46504;" parent="1" vertex="1">
          <mxGeometry x="552" y="197" width="120" height="30" as="geometry" />
        </mxCell>
        <mxCell id="PyTM0OaPz90ZbL3KX4yQ-64" style="edgeStyle=orthogonalEdgeStyle;rounded=0;orthogonalLoop=1;jettySize=auto;html=1;exitX=0.5;exitY=0;exitDx=0;exitDy=0;entryX=0.5;entryY=1;entryDx=0;entryDy=0;" parent="1" source="PyTM0OaPz90ZbL3KX4yQ-35" target="PyTM0OaPz90ZbL3KX4yQ-36" edge="1">
          <mxGeometry relative="1" as="geometry" />
        </mxCell>
        <mxCell id="PyTM0OaPz90ZbL3KX4yQ-35" value="Feed forward" style="rounded=0;whiteSpace=wrap;html=1;fillColor=#f8cecc;strokeColor=#b85450;" parent="1" vertex="1">
          <mxGeometry x="190" y="105" width="120" height="30" as="geometry" />
        </mxCell>
        <mxCell id="PyTM0OaPz90ZbL3KX4yQ-67" style="edgeStyle=orthogonalEdgeStyle;rounded=0;orthogonalLoop=1;jettySize=auto;html=1;exitX=0.5;exitY=0;exitDx=0;exitDy=0;" parent="1" source="PyTM0OaPz90ZbL3KX4yQ-36" edge="1">
          <mxGeometry relative="1" as="geometry">
            <mxPoint x="250" as="targetPoint" />
          </mxGeometry>
        </mxCell>
        <mxCell id="PyTM0OaPz90ZbL3KX4yQ-68" value="To next diffusion reconstruction layer" style="edgeLabel;html=1;align=center;verticalAlign=middle;resizable=0;points=[];" parent="PyTM0OaPz90ZbL3KX4yQ-67" vertex="1" connectable="0">
          <mxGeometry x="-0.0554" relative="1" as="geometry">
            <mxPoint as="offset" />
          </mxGeometry>
        </mxCell>
        <mxCell id="PyTM0OaPz90ZbL3KX4yQ-36" value="Add &amp;amp; LayerNorm" style="rounded=0;whiteSpace=wrap;html=1;fillColor=#f5f5f5;fontColor=#333333;strokeColor=#666666;" parent="1" vertex="1">
          <mxGeometry x="190" y="50" width="120" height="30" as="geometry" />
        </mxCell>
        <mxCell id="PyTM0OaPz90ZbL3KX4yQ-40" value="" style="group" parent="1" vertex="1" connectable="0">
          <mxGeometry x="210" y="300" width="80" height="60" as="geometry" />
        </mxCell>
        <mxCell id="PyTM0OaPz90ZbL3KX4yQ-18" value="" style="rounded=0;whiteSpace=wrap;html=1;" parent="PyTM0OaPz90ZbL3KX4yQ-40" vertex="1">
          <mxGeometry y="30" width="80" height="30" as="geometry" />
        </mxCell>
        <mxCell id="PyTM0OaPz90ZbL3KX4yQ-3" value="Seasonal" style="rounded=0;whiteSpace=wrap;html=1;fillColor=#ffe6cc;strokeColor=#d79b00;" parent="PyTM0OaPz90ZbL3KX4yQ-40" vertex="1">
          <mxGeometry width="80" height="30" as="geometry" />
        </mxCell>
        <mxCell id="PyTM0OaPz90ZbL3KX4yQ-19" value="" style="group" parent="PyTM0OaPz90ZbL3KX4yQ-40" vertex="1" connectable="0">
          <mxGeometry y="40" width="80" height="20" as="geometry" />
        </mxCell>
        <mxCell id="PyTM0OaPz90ZbL3KX4yQ-14" value="" style="endArrow=none;html=1;rounded=0;" parent="PyTM0OaPz90ZbL3KX4yQ-19" edge="1">
          <mxGeometry width="50" height="50" relative="1" as="geometry">
            <mxPoint y="20" as="sourcePoint" />
            <mxPoint x="24" y="5" as="targetPoint" />
          </mxGeometry>
        </mxCell>
        <mxCell id="PyTM0OaPz90ZbL3KX4yQ-15" value="" style="endArrow=none;html=1;rounded=0;" parent="PyTM0OaPz90ZbL3KX4yQ-19" edge="1">
          <mxGeometry width="50" height="50" relative="1" as="geometry">
            <mxPoint x="24" y="5" as="sourcePoint" />
            <mxPoint x="40" y="15" as="targetPoint" />
          </mxGeometry>
        </mxCell>
        <mxCell id="PyTM0OaPz90ZbL3KX4yQ-16" value="" style="endArrow=none;html=1;rounded=0;" parent="PyTM0OaPz90ZbL3KX4yQ-19" edge="1">
          <mxGeometry width="50" height="50" relative="1" as="geometry">
            <mxPoint x="40" y="15" as="sourcePoint" />
            <mxPoint x="56" as="targetPoint" />
          </mxGeometry>
        </mxCell>
        <mxCell id="PyTM0OaPz90ZbL3KX4yQ-17" value="" style="endArrow=none;html=1;rounded=0;" parent="PyTM0OaPz90ZbL3KX4yQ-19" edge="1">
          <mxGeometry width="50" height="50" relative="1" as="geometry">
            <mxPoint x="56" as="sourcePoint" />
            <mxPoint x="80" y="20" as="targetPoint" />
          </mxGeometry>
        </mxCell>
        <mxCell id="PyTM0OaPz90ZbL3KX4yQ-41" value="" style="group" parent="1" vertex="1" connectable="0">
          <mxGeometry x="330" y="300" width="170" height="180" as="geometry" />
        </mxCell>
        <mxCell id="PyTM0OaPz90ZbL3KX4yQ-4" value="Residual" style="rounded=0;whiteSpace=wrap;html=1;fillColor=#e1d5e7;strokeColor=#9673a6;" parent="PyTM0OaPz90ZbL3KX4yQ-41" vertex="1">
          <mxGeometry width="80" height="30" as="geometry" />
        </mxCell>
        <mxCell id="PyTM0OaPz90ZbL3KX4yQ-20" value="" style="rounded=0;whiteSpace=wrap;html=1;" parent="PyTM0OaPz90ZbL3KX4yQ-41" vertex="1">
          <mxGeometry y="30" width="80" height="30" as="geometry" />
        </mxCell>
        <mxCell id="PyTM0OaPz90ZbL3KX4yQ-28" value="" style="group" parent="PyTM0OaPz90ZbL3KX4yQ-41" vertex="1" connectable="0">
          <mxGeometry y="40" width="80" height="20" as="geometry" />
        </mxCell>
        <mxCell id="PyTM0OaPz90ZbL3KX4yQ-21" value="" style="endArrow=none;html=1;rounded=0;" parent="PyTM0OaPz90ZbL3KX4yQ-28" edge="1">
          <mxGeometry width="50" height="50" relative="1" as="geometry">
            <mxPoint y="13.333333333333332" as="sourcePoint" />
            <mxPoint x="11.428571428571427" y="6.666666666666666" as="targetPoint" />
          </mxGeometry>
        </mxCell>
        <mxCell id="PyTM0OaPz90ZbL3KX4yQ-22" value="" style="endArrow=none;html=1;rounded=0;" parent="PyTM0OaPz90ZbL3KX4yQ-28" edge="1">
          <mxGeometry width="50" height="50" relative="1" as="geometry">
            <mxPoint x="11.428571428571427" y="6.666666666666666" as="sourcePoint" />
            <mxPoint x="22.857142857142854" y="13.333333333333332" as="targetPoint" />
          </mxGeometry>
        </mxCell>
        <mxCell id="PyTM0OaPz90ZbL3KX4yQ-23" value="" style="endArrow=none;html=1;rounded=0;" parent="PyTM0OaPz90ZbL3KX4yQ-28" edge="1">
          <mxGeometry width="50" height="50" relative="1" as="geometry">
            <mxPoint x="22.857142857142854" y="13.333333333333332" as="sourcePoint" />
            <mxPoint x="34.285714285714285" as="targetPoint" />
          </mxGeometry>
        </mxCell>
        <mxCell id="PyTM0OaPz90ZbL3KX4yQ-24" value="" style="endArrow=none;html=1;rounded=0;" parent="PyTM0OaPz90ZbL3KX4yQ-28" edge="1">
          <mxGeometry width="50" height="50" relative="1" as="geometry">
            <mxPoint x="34.285714285714285" as="sourcePoint" />
            <mxPoint x="45.71428571428571" y="13.333333333333332" as="targetPoint" />
          </mxGeometry>
        </mxCell>
        <mxCell id="PyTM0OaPz90ZbL3KX4yQ-25" value="" style="endArrow=none;html=1;rounded=0;" parent="PyTM0OaPz90ZbL3KX4yQ-28" edge="1">
          <mxGeometry width="50" height="50" relative="1" as="geometry">
            <mxPoint x="45.71428571428571" y="13.333333333333332" as="sourcePoint" />
            <mxPoint x="57.14285714285714" y="20" as="targetPoint" />
          </mxGeometry>
        </mxCell>
        <mxCell id="PyTM0OaPz90ZbL3KX4yQ-26" value="" style="endArrow=none;html=1;rounded=0;" parent="PyTM0OaPz90ZbL3KX4yQ-28" edge="1">
          <mxGeometry width="50" height="50" relative="1" as="geometry">
            <mxPoint x="57.14285714285714" y="20" as="sourcePoint" />
            <mxPoint x="68.57142857142857" y="6.666666666666666" as="targetPoint" />
          </mxGeometry>
        </mxCell>
        <mxCell id="PyTM0OaPz90ZbL3KX4yQ-27" value="" style="endArrow=none;html=1;rounded=0;" parent="PyTM0OaPz90ZbL3KX4yQ-28" edge="1">
          <mxGeometry width="50" height="50" relative="1" as="geometry">
            <mxPoint x="68.57142857142857" y="6.666666666666666" as="sourcePoint" />
            <mxPoint x="80" y="13.333333333333332" as="targetPoint" />
          </mxGeometry>
        </mxCell>
        <mxCell id="PyTM0OaPz90ZbL3KX4yQ-42" value="" style="group" parent="1" vertex="1" connectable="0">
          <mxGeometry x="90" y="300" width="80" height="60" as="geometry" />
        </mxCell>
        <mxCell id="PyTM0OaPz90ZbL3KX4yQ-2" value="Trend" style="rounded=0;whiteSpace=wrap;html=1;fillColor=#dae8fc;strokeColor=#6c8ebf;" parent="PyTM0OaPz90ZbL3KX4yQ-42" vertex="1">
          <mxGeometry width="80" height="30" as="geometry" />
        </mxCell>
        <mxCell id="PyTM0OaPz90ZbL3KX4yQ-6" value="" style="rounded=0;whiteSpace=wrap;html=1;" parent="PyTM0OaPz90ZbL3KX4yQ-42" vertex="1">
          <mxGeometry y="30" width="80" height="30" as="geometry" />
        </mxCell>
        <mxCell id="PyTM0OaPz90ZbL3KX4yQ-11" value="" style="group" parent="PyTM0OaPz90ZbL3KX4yQ-42" vertex="1" connectable="0">
          <mxGeometry y="40" width="80" height="10" as="geometry" />
        </mxCell>
        <mxCell id="PyTM0OaPz90ZbL3KX4yQ-7" value="" style="endArrow=none;html=1;rounded=0;" parent="PyTM0OaPz90ZbL3KX4yQ-11" edge="1">
          <mxGeometry width="50" height="50" relative="1" as="geometry">
            <mxPoint y="5" as="sourcePoint" />
            <mxPoint x="20" as="targetPoint" />
          </mxGeometry>
        </mxCell>
        <mxCell id="PyTM0OaPz90ZbL3KX4yQ-8" value="" style="endArrow=none;html=1;rounded=0;" parent="PyTM0OaPz90ZbL3KX4yQ-11" edge="1">
          <mxGeometry width="50" height="50" relative="1" as="geometry">
            <mxPoint x="20" as="sourcePoint" />
            <mxPoint x="40" y="5" as="targetPoint" />
          </mxGeometry>
        </mxCell>
        <mxCell id="PyTM0OaPz90ZbL3KX4yQ-9" value="" style="endArrow=none;html=1;rounded=0;" parent="PyTM0OaPz90ZbL3KX4yQ-11" edge="1">
          <mxGeometry width="50" height="50" relative="1" as="geometry">
            <mxPoint x="40" y="5" as="sourcePoint" />
            <mxPoint x="60" y="10" as="targetPoint" />
          </mxGeometry>
        </mxCell>
        <mxCell id="PyTM0OaPz90ZbL3KX4yQ-10" value="" style="endArrow=none;html=1;rounded=0;" parent="PyTM0OaPz90ZbL3KX4yQ-11" edge="1">
          <mxGeometry width="50" height="50" relative="1" as="geometry">
            <mxPoint x="60" y="10" as="sourcePoint" />
            <mxPoint x="80" y="10" as="targetPoint" />
          </mxGeometry>
        </mxCell>
        <mxCell id="PyTM0OaPz90ZbL3KX4yQ-78" style="edgeStyle=orthogonalEdgeStyle;rounded=0;orthogonalLoop=1;jettySize=auto;html=1;exitX=1;exitY=0.5;exitDx=0;exitDy=0;entryX=1.002;entryY=0.306;entryDx=0;entryDy=0;dashed=1;entryPerimeter=0;" parent="1" source="PyTM0OaPz90ZbL3KX4yQ-44" target="PyTM0OaPz90ZbL3KX4yQ-37" edge="1">
          <mxGeometry relative="1" as="geometry">
            <Array as="points">
              <mxPoint x="690" y="295" />
              <mxPoint x="690" y="150" />
              <mxPoint x="451" y="150" />
            </Array>
          </mxGeometry>
        </mxCell>
        <mxCell id="PyTM0OaPz90ZbL3KX4yQ-80" value="&lt;font style=&quot;font-size: 13px;&quot;&gt;Backpropagation&lt;/font&gt;" style="edgeLabel;html=1;align=center;verticalAlign=middle;resizable=0;points=[];" parent="PyTM0OaPz90ZbL3KX4yQ-78" vertex="1" connectable="0">
          <mxGeometry x="0.5016" y="-2" relative="1" as="geometry">
            <mxPoint as="offset" />
          </mxGeometry>
        </mxCell>
        <mxCell id="PyTM0OaPz90ZbL3KX4yQ-44" value="Loss" style="rounded=0;whiteSpace=wrap;html=1;fillColor=#d0cee2;strokeColor=#56517e;" parent="1" vertex="1">
          <mxGeometry x="552" y="280" width="120" height="30" as="geometry" />
        </mxCell>
        <mxCell id="PyTM0OaPz90ZbL3KX4yQ-77" style="edgeStyle=orthogonalEdgeStyle;rounded=0;orthogonalLoop=1;jettySize=auto;html=1;exitX=0.5;exitY=0;exitDx=0;exitDy=0;entryX=0.5;entryY=1;entryDx=0;entryDy=0;" parent="1" source="PyTM0OaPz90ZbL3KX4yQ-45" target="PyTM0OaPz90ZbL3KX4yQ-44" edge="1">
          <mxGeometry relative="1" as="geometry" />
        </mxCell>
        <mxCell id="PyTM0OaPz90ZbL3KX4yQ-45" value="Change point weight matrix" style="rounded=0;whiteSpace=wrap;html=1;fillColor=#bac8d3;strokeColor=#23445d;" parent="1" vertex="1">
          <mxGeometry x="532" y="380" width="160" height="30" as="geometry" />
        </mxCell>
        <mxCell id="PyTM0OaPz90ZbL3KX4yQ-96" style="edgeStyle=orthogonalEdgeStyle;rounded=0;orthogonalLoop=1;jettySize=auto;html=1;exitX=0.5;exitY=0;exitDx=0;exitDy=0;entryX=0.5;entryY=1;entryDx=0;entryDy=0;" parent="1" source="PyTM0OaPz90ZbL3KX4yQ-46" target="PyTM0OaPz90ZbL3KX4yQ-50" edge="1">
          <mxGeometry relative="1" as="geometry" />
        </mxCell>
        <mxCell id="PyTM0OaPz90ZbL3KX4yQ-46" value="Dynamic threshold" style="rounded=0;whiteSpace=wrap;html=1;fillColor=#b1ddf0;strokeColor=#10739e;" parent="1" vertex="1">
          <mxGeometry x="765" y="227" width="120" height="30" as="geometry" />
        </mxCell>
        <mxCell id="PyTM0OaPz90ZbL3KX4yQ-93" style="edgeStyle=orthogonalEdgeStyle;rounded=0;orthogonalLoop=1;jettySize=auto;html=1;exitX=0.5;exitY=0;exitDx=0;exitDy=0;entryX=0.5;entryY=1;entryDx=0;entryDy=0;" parent="1" source="PyTM0OaPz90ZbL3KX4yQ-47" target="PyTM0OaPz90ZbL3KX4yQ-48" edge="1">
          <mxGeometry relative="1" as="geometry" />
        </mxCell>
        <mxCell id="PyTM0OaPz90ZbL3KX4yQ-47" value="Entropy weight method" style="rounded=0;whiteSpace=wrap;html=1;fillColor=#ffcc99;strokeColor=#36393d;" parent="1" vertex="1">
          <mxGeometry x="752.5" y="430" width="145" height="32" as="geometry" />
        </mxCell>
        <mxCell id="PyTM0OaPz90ZbL3KX4yQ-94" style="edgeStyle=orthogonalEdgeStyle;rounded=0;orthogonalLoop=1;jettySize=auto;html=1;exitX=0.5;exitY=0;exitDx=0;exitDy=0;entryX=0.5;entryY=1;entryDx=0;entryDy=0;" parent="1" source="PyTM0OaPz90ZbL3KX4yQ-48" target="PyTM0OaPz90ZbL3KX4yQ-88" edge="1">
          <mxGeometry relative="1" as="geometry" />
        </mxCell>
        <mxCell id="PyTM0OaPz90ZbL3KX4yQ-48" value="Entropy weight vector" style="rounded=0;whiteSpace=wrap;html=1;fillColor=#FFCC99;" parent="1" vertex="1">
          <mxGeometry x="760" y="350" width="130" height="30" as="geometry" />
        </mxCell>
        <mxCell id="PyTM0OaPz90ZbL3KX4yQ-86" style="edgeStyle=orthogonalEdgeStyle;rounded=0;orthogonalLoop=1;jettySize=auto;html=1;exitX=1;exitY=0.5;exitDx=0;exitDy=0;entryX=1;entryY=0.5;entryDx=0;entryDy=0;" parent="1" source="PyTM0OaPz90ZbL3KX4yQ-49" target="PyTM0OaPz90ZbL3KX4yQ-88" edge="1">
          <mxGeometry relative="1" as="geometry">
            <mxPoint x="970" y="290" as="targetPoint" />
          </mxGeometry>
        </mxCell>
        <mxCell id="PyTM0OaPz90ZbL3KX4yQ-92" style="edgeStyle=orthogonalEdgeStyle;rounded=0;orthogonalLoop=1;jettySize=auto;html=1;exitX=0.5;exitY=0;exitDx=0;exitDy=0;entryX=0.5;entryY=1;entryDx=0;entryDy=0;" parent="1" source="PyTM0OaPz90ZbL3KX4yQ-49" target="PyTM0OaPz90ZbL3KX4yQ-47" edge="1">
          <mxGeometry relative="1" as="geometry" />
        </mxCell>
        <mxCell id="PyTM0OaPz90ZbL3KX4yQ-49" value="Reconstruction error matrix" style="rounded=0;whiteSpace=wrap;html=1;fillColor=#fad9d5;strokeColor=#ae4132;" parent="1" vertex="1">
          <mxGeometry x="740" y="510" width="170" height="30" as="geometry" />
        </mxCell>
        <mxCell id="PyTM0OaPz90ZbL3KX4yQ-50" value="Anomaly discrimination" style="rounded=0;whiteSpace=wrap;html=1;fillColor=#ffcccc;strokeColor=#36393d;" parent="1" vertex="1">
          <mxGeometry x="765" y="120" width="120" height="60" as="geometry" />
        </mxCell>
        <mxCell id="PyTM0OaPz90ZbL3KX4yQ-53" style="edgeStyle=orthogonalEdgeStyle;rounded=0;orthogonalLoop=1;jettySize=auto;html=1;exitX=0.5;exitY=0;exitDx=0;exitDy=0;entryX=0.5;entryY=1;entryDx=0;entryDy=0;" parent="1" source="PyTM0OaPz90ZbL3KX4yQ-2" target="PyTM0OaPz90ZbL3KX4yQ-29" edge="1">
          <mxGeometry relative="1" as="geometry" />
        </mxCell>
        <mxCell id="PyTM0OaPz90ZbL3KX4yQ-54" style="edgeStyle=orthogonalEdgeStyle;rounded=0;orthogonalLoop=1;jettySize=auto;html=1;exitX=0.5;exitY=0;exitDx=0;exitDy=0;entryX=0.5;entryY=1;entryDx=0;entryDy=0;" parent="1" source="PyTM0OaPz90ZbL3KX4yQ-3" target="PyTM0OaPz90ZbL3KX4yQ-30" edge="1">
          <mxGeometry relative="1" as="geometry" />
        </mxCell>
        <mxCell id="PyTM0OaPz90ZbL3KX4yQ-55" style="edgeStyle=orthogonalEdgeStyle;rounded=0;orthogonalLoop=1;jettySize=auto;html=1;exitX=0.5;exitY=0;exitDx=0;exitDy=0;entryX=0.5;entryY=1;entryDx=0;entryDy=0;" parent="1" source="PyTM0OaPz90ZbL3KX4yQ-4" target="PyTM0OaPz90ZbL3KX4yQ-31" edge="1">
          <mxGeometry relative="1" as="geometry" />
        </mxCell>
        <mxCell id="PyTM0OaPz90ZbL3KX4yQ-59" style="edgeStyle=orthogonalEdgeStyle;rounded=0;orthogonalLoop=1;jettySize=auto;html=1;exitX=0.5;exitY=0;exitDx=0;exitDy=0;entryX=0;entryY=0.5;entryDx=0;entryDy=0;" parent="1" source="PyTM0OaPz90ZbL3KX4yQ-1" target="PyTM0OaPz90ZbL3KX4yQ-32" edge="1">
          <mxGeometry relative="1" as="geometry">
            <mxPoint x="250" y="460" as="sourcePoint" />
            <mxPoint x="200" y="175" as="targetPoint" />
            <Array as="points">
              <mxPoint x="250" y="450" />
              <mxPoint x="60" y="450" />
              <mxPoint x="60" y="175" />
            </Array>
          </mxGeometry>
        </mxCell>
        <mxCell id="PyTM0OaPz90ZbL3KX4yQ-90" value="" style="group" parent="1" vertex="1" connectable="0">
          <mxGeometry x="817.5" y="295" width="15" height="15" as="geometry" />
        </mxCell>
        <mxCell id="PyTM0OaPz90ZbL3KX4yQ-88" value="" style="ellipse;whiteSpace=wrap;html=1;aspect=fixed;" parent="PyTM0OaPz90ZbL3KX4yQ-90" vertex="1">
          <mxGeometry width="15" height="15" as="geometry" />
        </mxCell>
        <mxCell id="PyTM0OaPz90ZbL3KX4yQ-89" value="" style="ellipse;whiteSpace=wrap;html=1;aspect=fixed;gradientColor=none;fillColor=#000000;" parent="PyTM0OaPz90ZbL3KX4yQ-90" vertex="1">
          <mxGeometry x="5" y="5" width="5" height="5" as="geometry" />
        </mxCell>
        <mxCell id="PyTM0OaPz90ZbL3KX4yQ-95" style="edgeStyle=orthogonalEdgeStyle;rounded=0;orthogonalLoop=1;jettySize=auto;html=1;exitX=0.5;exitY=0;exitDx=0;exitDy=0;entryX=0.5;entryY=1;entryDx=0;entryDy=0;" parent="1" source="PyTM0OaPz90ZbL3KX4yQ-88" target="PyTM0OaPz90ZbL3KX4yQ-46" edge="1">
          <mxGeometry relative="1" as="geometry" />
        </mxCell>
        <mxCell id="PyTM0OaPz90ZbL3KX4yQ-97" value="Diffusion reconstruction layer" style="text;html=1;align=center;verticalAlign=middle;whiteSpace=wrap;rounded=0;" parent="1" vertex="1">
          <mxGeometry x="30" y="10" width="100" height="50" as="geometry" />
        </mxCell>
        <mxCell id="PyTM0OaPz90ZbL3KX4yQ-98" value="Time steps:" style="text;html=1;align=center;verticalAlign=middle;whiteSpace=wrap;rounded=0;" parent="1" vertex="1">
          <mxGeometry x="-209" y="800" width="100" height="30" as="geometry" />
        </mxCell>
        <mxCell id="PyTM0OaPz90ZbL3KX4yQ-99" value="Denoise step 1 reconstruction:" style="text;html=1;align=center;verticalAlign=middle;whiteSpace=wrap;rounded=0;" parent="1" vertex="1">
          <mxGeometry x="-224" y="850" width="130" height="30" as="geometry" />
        </mxCell>
        <mxCell id="PyTM0OaPz90ZbL3KX4yQ-100" value="Denoise step 2 reconstruction:" style="text;html=1;align=center;verticalAlign=middle;whiteSpace=wrap;rounded=0;" parent="1" vertex="1">
          <mxGeometry x="-224" y="900" width="130" height="30" as="geometry" />
        </mxCell>
        <mxCell id="PyTM0OaPz90ZbL3KX4yQ-101" value="Denoise step N reconstruction:" style="text;html=1;align=center;verticalAlign=middle;whiteSpace=wrap;rounded=0;" parent="1" vertex="1">
          <mxGeometry x="-224" y="950" width="130" height="30" as="geometry" />
        </mxCell>
        <mxCell id="PyTM0OaPz90ZbL3KX4yQ-102" value="Initial X:" style="text;html=1;align=center;verticalAlign=middle;whiteSpace=wrap;rounded=0;" parent="1" vertex="1">
          <mxGeometry x="-209" y="1000" width="100" height="30" as="geometry" />
        </mxCell>
        <mxCell id="PyTM0OaPz90ZbL3KX4yQ-103" value="" style="ellipse;whiteSpace=wrap;html=1;aspect=fixed;fillColor=#f0a30a;fontColor=#000000;strokeColor=#BD7000;" parent="1" vertex="1">
          <mxGeometry x="-70" y="855" width="20" height="20" as="geometry" />
        </mxCell>
        <mxCell id="PyTM0OaPz90ZbL3KX4yQ-105" value="" style="whiteSpace=wrap;html=1;aspect=fixed;fillColor=#d5e8d4;strokeColor=#82b366;" parent="1" vertex="1">
          <mxGeometry x="-70" y="1005" width="20" height="20" as="geometry" />
        </mxCell>
        <mxCell id="PyTM0OaPz90ZbL3KX4yQ-106" value="" style="whiteSpace=wrap;html=1;aspect=fixed;fillColor=#d5e8d4;strokeColor=#82b366;" parent="1" vertex="1">
          <mxGeometry x="-20" y="1005" width="20" height="20" as="geometry" />
        </mxCell>
        <mxCell id="PyTM0OaPz90ZbL3KX4yQ-107" value="" style="whiteSpace=wrap;html=1;aspect=fixed;fillColor=#d5e8d4;strokeColor=#82b366;" parent="1" vertex="1">
          <mxGeometry x="30" y="1005" width="20" height="20" as="geometry" />
        </mxCell>
        <mxCell id="PyTM0OaPz90ZbL3KX4yQ-108" value="" style="ellipse;whiteSpace=wrap;html=1;aspect=fixed;fillColor=#f0a30a;strokeColor=#BD7000;align=center;verticalAlign=middle;fontFamily=Helvetica;fontSize=12;fontColor=#000000;" parent="1" vertex="1">
          <mxGeometry x="-20" y="855" width="20" height="20" as="geometry" />
        </mxCell>
        <mxCell id="PyTM0OaPz90ZbL3KX4yQ-109" value="" style="ellipse;whiteSpace=wrap;html=1;aspect=fixed;strokeColor=#BD7000;align=center;verticalAlign=middle;fontFamily=Helvetica;fontSize=12;fontColor=#000000;fillColor=#f0a30a;" parent="1" vertex="1">
          <mxGeometry x="30" y="855" width="20" height="20" as="geometry" />
        </mxCell>
        <mxCell id="PyTM0OaPz90ZbL3KX4yQ-110" value="" style="ellipse;whiteSpace=wrap;html=1;aspect=fixed;fillColor=#ffe6cc;strokeColor=#d79b00;" parent="1" vertex="1">
          <mxGeometry x="-70" y="905" width="20" height="20" as="geometry" />
        </mxCell>
        <mxCell id="PyTM0OaPz90ZbL3KX4yQ-112" value="" style="ellipse;whiteSpace=wrap;html=1;aspect=fixed;fillColor=#ffe6cc;strokeColor=#d79b00;" parent="1" vertex="1">
          <mxGeometry x="-20" y="905" width="20" height="20" as="geometry" />
        </mxCell>
        <mxCell id="PyTM0OaPz90ZbL3KX4yQ-113" value="" style="ellipse;whiteSpace=wrap;html=1;aspect=fixed;fillColor=#ffe6cc;strokeColor=#d79b00;" parent="1" vertex="1">
          <mxGeometry x="30" y="905" width="20" height="20" as="geometry" />
        </mxCell>
        <mxCell id="PyTM0OaPz90ZbL3KX4yQ-114" value="" style="ellipse;whiteSpace=wrap;html=1;aspect=fixed;fillColor=#fff2cc;strokeColor=#d6b656;" parent="1" vertex="1">
          <mxGeometry x="-20" y="955" width="20" height="20" as="geometry" />
        </mxCell>
        <mxCell id="PyTM0OaPz90ZbL3KX4yQ-115" value="" style="ellipse;whiteSpace=wrap;html=1;aspect=fixed;fillColor=#fff2cc;strokeColor=#d6b656;" parent="1" vertex="1">
          <mxGeometry x="-70" y="955" width="20" height="20" as="geometry" />
        </mxCell>
        <mxCell id="PyTM0OaPz90ZbL3KX4yQ-116" value="" style="ellipse;whiteSpace=wrap;html=1;aspect=fixed;fillColor=#fff2cc;strokeColor=#d6b656;" parent="1" vertex="1">
          <mxGeometry x="30" y="955" width="20" height="20" as="geometry" />
        </mxCell>
        <mxCell id="PyTM0OaPz90ZbL3KX4yQ-121" value="1" style="shape=offPageConnector;whiteSpace=wrap;html=1;" parent="1" vertex="1">
          <mxGeometry x="-70" y="805" width="20" height="20" as="geometry" />
        </mxCell>
        <mxCell id="PyTM0OaPz90ZbL3KX4yQ-122" value="2" style="shape=offPageConnector;whiteSpace=wrap;html=1;" parent="1" vertex="1">
          <mxGeometry x="-20" y="805" width="20" height="20" as="geometry" />
        </mxCell>
        <mxCell id="PyTM0OaPz90ZbL3KX4yQ-123" value="T" style="shape=offPageConnector;whiteSpace=wrap;html=1;" parent="1" vertex="1">
          <mxGeometry x="30" y="805" width="20" height="20" as="geometry" />
        </mxCell>
        <mxCell id="PyTM0OaPz90ZbL3KX4yQ-136" style="edgeStyle=orthogonalEdgeStyle;rounded=0;orthogonalLoop=1;jettySize=auto;html=1;exitX=1;exitY=0.5;exitDx=0;exitDy=0;entryX=0;entryY=0.5;entryDx=0;entryDy=0;" parent="1" source="PyTM0OaPz90ZbL3KX4yQ-126" target="PyTM0OaPz90ZbL3KX4yQ-131" edge="1">
          <mxGeometry relative="1" as="geometry" />
        </mxCell>
        <mxCell id="PyTM0OaPz90ZbL3KX4yQ-126" value="" style="rounded=1;whiteSpace=wrap;html=1;fillColor=none;dashed=1;dashPattern=8 8;" parent="1" vertex="1">
          <mxGeometry x="-80" y="900" width="140" height="30" as="geometry" />
        </mxCell>
        <mxCell id="PyTM0OaPz90ZbL3KX4yQ-137" style="edgeStyle=orthogonalEdgeStyle;rounded=0;orthogonalLoop=1;jettySize=auto;html=1;exitX=1;exitY=0.5;exitDx=0;exitDy=0;entryX=0;entryY=0.5;entryDx=0;entryDy=0;" parent="1" source="PyTM0OaPz90ZbL3KX4yQ-127" target="PyTM0OaPz90ZbL3KX4yQ-132" edge="1">
          <mxGeometry relative="1" as="geometry" />
        </mxCell>
        <mxCell id="PyTM0OaPz90ZbL3KX4yQ-127" value="" style="rounded=1;whiteSpace=wrap;html=1;fillColor=none;dashed=1;dashPattern=8 8;" parent="1" vertex="1">
          <mxGeometry x="-80" y="950" width="140" height="30" as="geometry" />
        </mxCell>
        <mxCell id="PyTM0OaPz90ZbL3KX4yQ-130" style="edgeStyle=orthogonalEdgeStyle;rounded=0;orthogonalLoop=1;jettySize=auto;html=1;exitX=1;exitY=0.5;exitDx=0;exitDy=0;entryX=0;entryY=0.5;entryDx=0;entryDy=0;" parent="1" source="PyTM0OaPz90ZbL3KX4yQ-128" target="PyTM0OaPz90ZbL3KX4yQ-129" edge="1">
          <mxGeometry relative="1" as="geometry" />
        </mxCell>
        <mxCell id="PyTM0OaPz90ZbL3KX4yQ-133" style="edgeStyle=orthogonalEdgeStyle;rounded=0;orthogonalLoop=1;jettySize=auto;html=1;exitX=1;exitY=0.5;exitDx=0;exitDy=0;entryX=0;entryY=0.5;entryDx=0;entryDy=0;" parent="1" source="PyTM0OaPz90ZbL3KX4yQ-128" target="PyTM0OaPz90ZbL3KX4yQ-131" edge="1">
          <mxGeometry relative="1" as="geometry" />
        </mxCell>
        <mxCell id="PyTM0OaPz90ZbL3KX4yQ-134" style="edgeStyle=orthogonalEdgeStyle;rounded=0;orthogonalLoop=1;jettySize=auto;html=1;exitX=1;exitY=0.5;exitDx=0;exitDy=0;entryX=0;entryY=0.5;entryDx=0;entryDy=0;" parent="1" source="PyTM0OaPz90ZbL3KX4yQ-128" target="PyTM0OaPz90ZbL3KX4yQ-132" edge="1">
          <mxGeometry relative="1" as="geometry" />
        </mxCell>
        <mxCell id="PyTM0OaPz90ZbL3KX4yQ-128" value="" style="rounded=1;whiteSpace=wrap;html=1;fillColor=none;dashed=1;dashPattern=8 8;" parent="1" vertex="1">
          <mxGeometry x="-80" y="1000" width="140" height="30" as="geometry" />
        </mxCell>
        <mxCell id="PyTM0OaPz90ZbL3KX4yQ-129" value="$$e^1$$" style="rounded=0;whiteSpace=wrap;html=1;" parent="1" vertex="1">
          <mxGeometry x="130" y="850" width="30" height="30" as="geometry" />
        </mxCell>
        <mxCell id="PyTM0OaPz90ZbL3KX4yQ-131" value="$$e^2$$" style="rounded=0;whiteSpace=wrap;html=1;" parent="1" vertex="1">
          <mxGeometry x="130" y="900" width="30" height="30" as="geometry" />
        </mxCell>
        <mxCell id="PyTM0OaPz90ZbL3KX4yQ-132" value="$$e^N$$" style="rounded=0;whiteSpace=wrap;html=1;" parent="1" vertex="1">
          <mxGeometry x="130" y="950" width="30" height="30" as="geometry" />
        </mxCell>
        <mxCell id="QxMVnpEt2BW7tJQRwEue-1" style="edgeStyle=orthogonalEdgeStyle;rounded=0;orthogonalLoop=1;jettySize=auto;html=1;exitX=0.75;exitY=1;exitDx=0;exitDy=0;entryX=0;entryY=0.5;entryDx=0;entryDy=0;dashed=1;" edge="1" parent="1" source="QxMVnpEt2BW7tJQRwEue-4" target="QxMVnpEt2BW7tJQRwEue-75">
          <mxGeometry relative="1" as="geometry">
            <mxPoint x="-259.1666666666665" y="2148" as="targetPoint" />
          </mxGeometry>
        </mxCell>
        <mxCell id="QxMVnpEt2BW7tJQRwEue-2" style="edgeStyle=orthogonalEdgeStyle;rounded=0;orthogonalLoop=1;jettySize=auto;html=1;exitX=0.75;exitY=1;exitDx=0;exitDy=0;entryX=0;entryY=0.5;entryDx=0;entryDy=0;dashed=1;" edge="1" parent="1" source="QxMVnpEt2BW7tJQRwEue-3" target="QxMVnpEt2BW7tJQRwEue-75">
          <mxGeometry relative="1" as="geometry">
            <mxPoint x="-240" y="2128" as="targetPoint" />
          </mxGeometry>
        </mxCell>
        <mxCell id="QxMVnpEt2BW7tJQRwEue-3" value="" style="rounded=1;whiteSpace=wrap;html=1;fillColor=none;dashed=1;" vertex="1" parent="1">
          <mxGeometry x="-555" y="1540" width="420" height="500" as="geometry" />
        </mxCell>
        <mxCell id="QxMVnpEt2BW7tJQRwEue-4" value="" style="rounded=1;whiteSpace=wrap;html=1;fillColor=none;dashed=1;" vertex="1" parent="1">
          <mxGeometry x="-574" y="1556" width="420" height="500" as="geometry" />
        </mxCell>
        <mxCell id="QxMVnpEt2BW7tJQRwEue-5" style="edgeStyle=orthogonalEdgeStyle;rounded=0;orthogonalLoop=1;jettySize=auto;html=1;exitX=1;exitY=0.5;exitDx=0;exitDy=0;entryX=0;entryY=0.5;entryDx=0;entryDy=0;" edge="1" parent="1" source="QxMVnpEt2BW7tJQRwEue-3" target="QxMVnpEt2BW7tJQRwEue-29">
          <mxGeometry relative="1" as="geometry" />
        </mxCell>
        <mxCell id="QxMVnpEt2BW7tJQRwEue-6" style="edgeStyle=orthogonalEdgeStyle;rounded=0;orthogonalLoop=1;jettySize=auto;html=1;exitX=0.75;exitY=1;exitDx=0;exitDy=0;entryX=0;entryY=0.5;entryDx=0;entryDy=0;" edge="1" parent="1" source="QxMVnpEt2BW7tJQRwEue-7" target="QxMVnpEt2BW7tJQRwEue-75">
          <mxGeometry relative="1" as="geometry">
            <mxPoint x="-280" y="2138" as="targetPoint" />
          </mxGeometry>
        </mxCell>
        <mxCell id="QxMVnpEt2BW7tJQRwEue-7" value="" style="rounded=1;whiteSpace=wrap;html=1;fillColor=default;" vertex="1" parent="1">
          <mxGeometry x="-595" y="1573" width="420" height="505" as="geometry" />
        </mxCell>
        <mxCell id="QxMVnpEt2BW7tJQRwEue-8" style="edgeStyle=orthogonalEdgeStyle;rounded=0;orthogonalLoop=1;jettySize=auto;html=1;exitX=0.5;exitY=0;exitDx=0;exitDy=0;entryX=0.5;entryY=1;entryDx=0;entryDy=0;" edge="1" parent="1" source="QxMVnpEt2BW7tJQRwEue-12" target="QxMVnpEt2BW7tJQRwEue-16">
          <mxGeometry relative="1" as="geometry" />
        </mxCell>
        <mxCell id="QxMVnpEt2BW7tJQRwEue-9" style="edgeStyle=orthogonalEdgeStyle;rounded=0;orthogonalLoop=1;jettySize=auto;html=1;exitX=1;exitY=0.5;exitDx=0;exitDy=0;entryX=0;entryY=0.5;entryDx=0;entryDy=0;" edge="1" parent="1" source="QxMVnpEt2BW7tJQRwEue-12" target="QxMVnpEt2BW7tJQRwEue-27">
          <mxGeometry relative="1" as="geometry" />
        </mxCell>
        <mxCell id="QxMVnpEt2BW7tJQRwEue-10" style="edgeStyle=orthogonalEdgeStyle;rounded=0;orthogonalLoop=1;jettySize=auto;html=1;exitX=1;exitY=0.5;exitDx=0;exitDy=0;entryX=0;entryY=0.5;entryDx=0;entryDy=0;" edge="1" parent="1" source="QxMVnpEt2BW7tJQRwEue-12" target="QxMVnpEt2BW7tJQRwEue-64">
          <mxGeometry relative="1" as="geometry">
            <Array as="points">
              <mxPoint x="-115" y="2053" />
              <mxPoint x="-115" y="1873" />
            </Array>
          </mxGeometry>
        </mxCell>
        <mxCell id="QxMVnpEt2BW7tJQRwEue-11" style="edgeStyle=orthogonalEdgeStyle;rounded=0;orthogonalLoop=1;jettySize=auto;html=1;exitX=0.5;exitY=1;exitDx=0;exitDy=0;entryX=0.5;entryY=1;entryDx=0;entryDy=0;" edge="1" parent="1" source="QxMVnpEt2BW7tJQRwEue-12" target="QxMVnpEt2BW7tJQRwEue-75">
          <mxGeometry relative="1" as="geometry">
            <mxPoint x="-375" y="2148" as="targetPoint" />
          </mxGeometry>
        </mxCell>
        <mxCell id="QxMVnpEt2BW7tJQRwEue-12" value="X" style="rounded=0;whiteSpace=wrap;html=1;" vertex="1" parent="1">
          <mxGeometry x="-400" y="2038" width="50" height="30" as="geometry" />
        </mxCell>
        <mxCell id="QxMVnpEt2BW7tJQRwEue-13" style="edgeStyle=orthogonalEdgeStyle;rounded=0;orthogonalLoop=1;jettySize=auto;html=1;exitX=0.5;exitY=0;exitDx=0;exitDy=0;entryX=0.5;entryY=1;entryDx=0;entryDy=0;" edge="1" parent="1" source="QxMVnpEt2BW7tJQRwEue-16" target="QxMVnpEt2BW7tJQRwEue-56">
          <mxGeometry relative="1" as="geometry">
            <Array as="points">
              <mxPoint x="-375" y="1958" />
              <mxPoint x="-495" y="1958" />
            </Array>
          </mxGeometry>
        </mxCell>
        <mxCell id="QxMVnpEt2BW7tJQRwEue-14" style="edgeStyle=orthogonalEdgeStyle;rounded=0;orthogonalLoop=1;jettySize=auto;html=1;exitX=0.5;exitY=0;exitDx=0;exitDy=0;entryX=0.5;entryY=1;entryDx=0;entryDy=0;" edge="1" parent="1" source="QxMVnpEt2BW7tJQRwEue-16" target="QxMVnpEt2BW7tJQRwEue-36">
          <mxGeometry relative="1" as="geometry" />
        </mxCell>
        <mxCell id="QxMVnpEt2BW7tJQRwEue-15" style="edgeStyle=orthogonalEdgeStyle;rounded=0;orthogonalLoop=1;jettySize=auto;html=1;exitX=0.5;exitY=0;exitDx=0;exitDy=0;entryX=0.5;entryY=1;entryDx=0;entryDy=0;" edge="1" parent="1" source="QxMVnpEt2BW7tJQRwEue-16" target="QxMVnpEt2BW7tJQRwEue-45">
          <mxGeometry relative="1" as="geometry">
            <Array as="points">
              <mxPoint x="-375" y="1958" />
              <mxPoint x="-255" y="1958" />
            </Array>
          </mxGeometry>
        </mxCell>
        <mxCell id="QxMVnpEt2BW7tJQRwEue-16" value="STL 分解" style="rounded=0;whiteSpace=wrap;html=1;fillColor=#f0a30a;strokeColor=#BD7000;fontColor=#000000;" vertex="1" parent="1">
          <mxGeometry x="-435" y="1968" width="120" height="40" as="geometry" />
        </mxCell>
        <mxCell id="QxMVnpEt2BW7tJQRwEue-17" style="edgeStyle=orthogonalEdgeStyle;rounded=0;orthogonalLoop=1;jettySize=auto;html=1;exitX=0.5;exitY=0;exitDx=0;exitDy=0;entryX=0.5;entryY=1;entryDx=0;entryDy=0;" edge="1" parent="1" source="QxMVnpEt2BW7tJQRwEue-18" target="QxMVnpEt2BW7tJQRwEue-25">
          <mxGeometry relative="1" as="geometry" />
        </mxCell>
        <mxCell id="QxMVnpEt2BW7tJQRwEue-18" value="Transformer 块" style="rounded=0;whiteSpace=wrap;html=1;fillColor=#fff2cc;strokeColor=#d6b656;" vertex="1" parent="1">
          <mxGeometry x="-547.5" y="1808" width="105" height="30" as="geometry" />
        </mxCell>
        <mxCell id="QxMVnpEt2BW7tJQRwEue-19" style="edgeStyle=orthogonalEdgeStyle;rounded=0;orthogonalLoop=1;jettySize=auto;html=1;exitX=0.5;exitY=0;exitDx=0;exitDy=0;entryX=0.5;entryY=1;entryDx=0;entryDy=0;" edge="1" parent="1" source="QxMVnpEt2BW7tJQRwEue-20" target="QxMVnpEt2BW7tJQRwEue-25">
          <mxGeometry relative="1" as="geometry" />
        </mxCell>
        <mxCell id="QxMVnpEt2BW7tJQRwEue-20" value="Transformer 块" style="rounded=0;whiteSpace=wrap;html=1;fillColor=#fff2cc;strokeColor=#d6b656;" vertex="1" parent="1">
          <mxGeometry x="-430" y="1808" width="110" height="30" as="geometry" />
        </mxCell>
        <mxCell id="QxMVnpEt2BW7tJQRwEue-21" style="edgeStyle=orthogonalEdgeStyle;rounded=0;orthogonalLoop=1;jettySize=auto;html=1;exitX=0.5;exitY=0;exitDx=0;exitDy=0;entryX=0.5;entryY=1;entryDx=0;entryDy=0;" edge="1" parent="1" source="QxMVnpEt2BW7tJQRwEue-22" target="QxMVnpEt2BW7tJQRwEue-25">
          <mxGeometry relative="1" as="geometry" />
        </mxCell>
        <mxCell id="QxMVnpEt2BW7tJQRwEue-22" value="Transformer 块" style="rounded=0;whiteSpace=wrap;html=1;fillColor=#fff2cc;strokeColor=#d6b656;" vertex="1" parent="1">
          <mxGeometry x="-310" y="1808" width="110" height="30" as="geometry" />
        </mxCell>
        <mxCell id="QxMVnpEt2BW7tJQRwEue-23" style="edgeStyle=orthogonalEdgeStyle;rounded=0;orthogonalLoop=1;jettySize=auto;html=1;exitX=0.5;exitY=0;exitDx=0;exitDy=0;entryX=0.5;entryY=1;entryDx=0;entryDy=0;" edge="1" parent="1" source="QxMVnpEt2BW7tJQRwEue-25" target="QxMVnpEt2BW7tJQRwEue-31">
          <mxGeometry relative="1" as="geometry" />
        </mxCell>
        <mxCell id="QxMVnpEt2BW7tJQRwEue-24" style="edgeStyle=orthogonalEdgeStyle;rounded=0;orthogonalLoop=1;jettySize=auto;html=1;exitX=0.5;exitY=0;exitDx=0;exitDy=0;entryX=0;entryY=0.5;entryDx=0;entryDy=0;" edge="1" parent="1" source="QxMVnpEt2BW7tJQRwEue-25" target="QxMVnpEt2BW7tJQRwEue-34">
          <mxGeometry relative="1" as="geometry">
            <Array as="points">
              <mxPoint x="-375" y="1728" />
              <mxPoint x="-455" y="1728" />
              <mxPoint x="-455" y="1643" />
            </Array>
          </mxGeometry>
        </mxCell>
        <mxCell id="QxMVnpEt2BW7tJQRwEue-25" value="Add &amp;amp; LayerNorm" style="rounded=0;whiteSpace=wrap;html=1;fillColor=#f5f5f5;fontColor=#333333;strokeColor=#666666;" vertex="1" parent="1">
          <mxGeometry x="-435" y="1738" width="120" height="30" as="geometry" />
        </mxCell>
        <mxCell id="QxMVnpEt2BW7tJQRwEue-26" style="edgeStyle=orthogonalEdgeStyle;rounded=0;orthogonalLoop=1;jettySize=auto;html=1;exitX=0.5;exitY=0;exitDx=0;exitDy=0;entryX=0.5;entryY=1;entryDx=0;entryDy=0;" edge="1" parent="1" source="QxMVnpEt2BW7tJQRwEue-27" target="QxMVnpEt2BW7tJQRwEue-66">
          <mxGeometry relative="1" as="geometry" />
        </mxCell>
        <mxCell id="QxMVnpEt2BW7tJQRwEue-27" value="密度比变化点检测" style="rounded=0;whiteSpace=wrap;html=1;fillColor=#b0e3e6;strokeColor=#0e8088;" vertex="1" parent="1">
          <mxGeometry x="-83" y="2033" width="140" height="40" as="geometry" />
        </mxCell>
        <mxCell id="QxMVnpEt2BW7tJQRwEue-28" style="edgeStyle=orthogonalEdgeStyle;rounded=0;orthogonalLoop=1;jettySize=auto;html=1;exitX=0.5;exitY=1;exitDx=0;exitDy=0;entryX=0.5;entryY=0;entryDx=0;entryDy=0;" edge="1" parent="1" source="QxMVnpEt2BW7tJQRwEue-29" target="QxMVnpEt2BW7tJQRwEue-64">
          <mxGeometry relative="1" as="geometry" />
        </mxCell>
        <mxCell id="QxMVnpEt2BW7tJQRwEue-29" value="重构的 X" style="rounded=0;whiteSpace=wrap;html=1;fillColor=#fad7ac;strokeColor=#b46504;" vertex="1" parent="1">
          <mxGeometry x="-73" y="1775" width="120" height="30" as="geometry" />
        </mxCell>
        <mxCell id="QxMVnpEt2BW7tJQRwEue-30" style="edgeStyle=orthogonalEdgeStyle;rounded=0;orthogonalLoop=1;jettySize=auto;html=1;exitX=0.5;exitY=0;exitDx=0;exitDy=0;entryX=0.5;entryY=1;entryDx=0;entryDy=0;" edge="1" parent="1" source="QxMVnpEt2BW7tJQRwEue-31" target="QxMVnpEt2BW7tJQRwEue-34">
          <mxGeometry relative="1" as="geometry" />
        </mxCell>
        <mxCell id="QxMVnpEt2BW7tJQRwEue-31" value="前向传播" style="rounded=0;whiteSpace=wrap;html=1;fillColor=#f8cecc;strokeColor=#b85450;" vertex="1" parent="1">
          <mxGeometry x="-435" y="1683" width="120" height="30" as="geometry" />
        </mxCell>
        <mxCell id="QxMVnpEt2BW7tJQRwEue-32" style="edgeStyle=orthogonalEdgeStyle;rounded=0;orthogonalLoop=1;jettySize=auto;html=1;exitX=0.5;exitY=0;exitDx=0;exitDy=0;" edge="1" parent="1" source="QxMVnpEt2BW7tJQRwEue-34">
          <mxGeometry relative="1" as="geometry">
            <mxPoint x="-375" y="1578" as="targetPoint" />
          </mxGeometry>
        </mxCell>
        <mxCell id="QxMVnpEt2BW7tJQRwEue-33" value="输出到下一个扩散重构层" style="edgeLabel;html=1;align=center;verticalAlign=middle;resizable=0;points=[];" vertex="1" connectable="0" parent="QxMVnpEt2BW7tJQRwEue-32">
          <mxGeometry x="-0.0554" relative="1" as="geometry">
            <mxPoint as="offset" />
          </mxGeometry>
        </mxCell>
        <mxCell id="QxMVnpEt2BW7tJQRwEue-34" value="Add &amp;amp; LayerNorm" style="rounded=0;whiteSpace=wrap;html=1;fillColor=#f5f5f5;fontColor=#333333;strokeColor=#666666;" vertex="1" parent="1">
          <mxGeometry x="-435" y="1628" width="120" height="30" as="geometry" />
        </mxCell>
        <mxCell id="QxMVnpEt2BW7tJQRwEue-35" value="" style="group" vertex="1" connectable="0" parent="1">
          <mxGeometry x="-415" y="1878" width="80" height="60" as="geometry" />
        </mxCell>
        <mxCell id="QxMVnpEt2BW7tJQRwEue-36" value="" style="rounded=0;whiteSpace=wrap;html=1;" vertex="1" parent="QxMVnpEt2BW7tJQRwEue-35">
          <mxGeometry y="30" width="80" height="30" as="geometry" />
        </mxCell>
        <mxCell id="QxMVnpEt2BW7tJQRwEue-37" value="季节性" style="rounded=0;whiteSpace=wrap;html=1;fillColor=#ffe6cc;strokeColor=#d79b00;" vertex="1" parent="QxMVnpEt2BW7tJQRwEue-35">
          <mxGeometry width="80" height="30" as="geometry" />
        </mxCell>
        <mxCell id="QxMVnpEt2BW7tJQRwEue-38" value="" style="group" vertex="1" connectable="0" parent="QxMVnpEt2BW7tJQRwEue-35">
          <mxGeometry y="40" width="80" height="20" as="geometry" />
        </mxCell>
        <mxCell id="QxMVnpEt2BW7tJQRwEue-39" value="" style="endArrow=none;html=1;rounded=0;" edge="1" parent="QxMVnpEt2BW7tJQRwEue-38">
          <mxGeometry width="50" height="50" relative="1" as="geometry">
            <mxPoint y="20" as="sourcePoint" />
            <mxPoint x="24" y="5" as="targetPoint" />
          </mxGeometry>
        </mxCell>
        <mxCell id="QxMVnpEt2BW7tJQRwEue-40" value="" style="endArrow=none;html=1;rounded=0;" edge="1" parent="QxMVnpEt2BW7tJQRwEue-38">
          <mxGeometry width="50" height="50" relative="1" as="geometry">
            <mxPoint x="24" y="5" as="sourcePoint" />
            <mxPoint x="40" y="15" as="targetPoint" />
          </mxGeometry>
        </mxCell>
        <mxCell id="QxMVnpEt2BW7tJQRwEue-41" value="" style="endArrow=none;html=1;rounded=0;" edge="1" parent="QxMVnpEt2BW7tJQRwEue-38">
          <mxGeometry width="50" height="50" relative="1" as="geometry">
            <mxPoint x="40" y="15" as="sourcePoint" />
            <mxPoint x="56" as="targetPoint" />
          </mxGeometry>
        </mxCell>
        <mxCell id="QxMVnpEt2BW7tJQRwEue-42" value="" style="endArrow=none;html=1;rounded=0;" edge="1" parent="QxMVnpEt2BW7tJQRwEue-38">
          <mxGeometry width="50" height="50" relative="1" as="geometry">
            <mxPoint x="56" as="sourcePoint" />
            <mxPoint x="80" y="20" as="targetPoint" />
          </mxGeometry>
        </mxCell>
        <mxCell id="QxMVnpEt2BW7tJQRwEue-43" value="" style="group" vertex="1" connectable="0" parent="1">
          <mxGeometry x="-295" y="1878" width="170" height="180" as="geometry" />
        </mxCell>
        <mxCell id="QxMVnpEt2BW7tJQRwEue-44" value="残差" style="rounded=0;whiteSpace=wrap;html=1;fillColor=#e1d5e7;strokeColor=#9673a6;" vertex="1" parent="QxMVnpEt2BW7tJQRwEue-43">
          <mxGeometry width="80" height="30" as="geometry" />
        </mxCell>
        <mxCell id="QxMVnpEt2BW7tJQRwEue-45" value="" style="rounded=0;whiteSpace=wrap;html=1;" vertex="1" parent="QxMVnpEt2BW7tJQRwEue-43">
          <mxGeometry y="30" width="80" height="30" as="geometry" />
        </mxCell>
        <mxCell id="QxMVnpEt2BW7tJQRwEue-46" value="" style="group" vertex="1" connectable="0" parent="QxMVnpEt2BW7tJQRwEue-43">
          <mxGeometry y="40" width="80" height="20" as="geometry" />
        </mxCell>
        <mxCell id="QxMVnpEt2BW7tJQRwEue-47" value="" style="endArrow=none;html=1;rounded=0;" edge="1" parent="QxMVnpEt2BW7tJQRwEue-46">
          <mxGeometry width="50" height="50" relative="1" as="geometry">
            <mxPoint y="13.333333333333332" as="sourcePoint" />
            <mxPoint x="11.428571428571427" y="6.666666666666666" as="targetPoint" />
          </mxGeometry>
        </mxCell>
        <mxCell id="QxMVnpEt2BW7tJQRwEue-48" value="" style="endArrow=none;html=1;rounded=0;" edge="1" parent="QxMVnpEt2BW7tJQRwEue-46">
          <mxGeometry width="50" height="50" relative="1" as="geometry">
            <mxPoint x="11.428571428571427" y="6.666666666666666" as="sourcePoint" />
            <mxPoint x="22.857142857142854" y="13.333333333333332" as="targetPoint" />
          </mxGeometry>
        </mxCell>
        <mxCell id="QxMVnpEt2BW7tJQRwEue-49" value="" style="endArrow=none;html=1;rounded=0;" edge="1" parent="QxMVnpEt2BW7tJQRwEue-46">
          <mxGeometry width="50" height="50" relative="1" as="geometry">
            <mxPoint x="22.857142857142854" y="13.333333333333332" as="sourcePoint" />
            <mxPoint x="34.285714285714285" as="targetPoint" />
          </mxGeometry>
        </mxCell>
        <mxCell id="QxMVnpEt2BW7tJQRwEue-50" value="" style="endArrow=none;html=1;rounded=0;" edge="1" parent="QxMVnpEt2BW7tJQRwEue-46">
          <mxGeometry width="50" height="50" relative="1" as="geometry">
            <mxPoint x="34.285714285714285" as="sourcePoint" />
            <mxPoint x="45.71428571428571" y="13.333333333333332" as="targetPoint" />
          </mxGeometry>
        </mxCell>
        <mxCell id="QxMVnpEt2BW7tJQRwEue-51" value="" style="endArrow=none;html=1;rounded=0;" edge="1" parent="QxMVnpEt2BW7tJQRwEue-46">
          <mxGeometry width="50" height="50" relative="1" as="geometry">
            <mxPoint x="45.71428571428571" y="13.333333333333332" as="sourcePoint" />
            <mxPoint x="57.14285714285714" y="20" as="targetPoint" />
          </mxGeometry>
        </mxCell>
        <mxCell id="QxMVnpEt2BW7tJQRwEue-52" value="" style="endArrow=none;html=1;rounded=0;" edge="1" parent="QxMVnpEt2BW7tJQRwEue-46">
          <mxGeometry width="50" height="50" relative="1" as="geometry">
            <mxPoint x="57.14285714285714" y="20" as="sourcePoint" />
            <mxPoint x="68.57142857142857" y="6.666666666666666" as="targetPoint" />
          </mxGeometry>
        </mxCell>
        <mxCell id="QxMVnpEt2BW7tJQRwEue-53" value="" style="endArrow=none;html=1;rounded=0;" edge="1" parent="QxMVnpEt2BW7tJQRwEue-46">
          <mxGeometry width="50" height="50" relative="1" as="geometry">
            <mxPoint x="68.57142857142857" y="6.666666666666666" as="sourcePoint" />
            <mxPoint x="80" y="13.333333333333332" as="targetPoint" />
          </mxGeometry>
        </mxCell>
        <mxCell id="QxMVnpEt2BW7tJQRwEue-54" value="" style="group" vertex="1" connectable="0" parent="1">
          <mxGeometry x="-535" y="1878" width="80" height="60" as="geometry" />
        </mxCell>
        <mxCell id="QxMVnpEt2BW7tJQRwEue-55" value="趋势" style="rounded=0;whiteSpace=wrap;html=1;fillColor=#dae8fc;strokeColor=#6c8ebf;" vertex="1" parent="QxMVnpEt2BW7tJQRwEue-54">
          <mxGeometry width="80" height="30" as="geometry" />
        </mxCell>
        <mxCell id="QxMVnpEt2BW7tJQRwEue-56" value="" style="rounded=0;whiteSpace=wrap;html=1;" vertex="1" parent="QxMVnpEt2BW7tJQRwEue-54">
          <mxGeometry y="30" width="80" height="30" as="geometry" />
        </mxCell>
        <mxCell id="QxMVnpEt2BW7tJQRwEue-57" value="" style="group" vertex="1" connectable="0" parent="QxMVnpEt2BW7tJQRwEue-54">
          <mxGeometry y="40" width="80" height="10" as="geometry" />
        </mxCell>
        <mxCell id="QxMVnpEt2BW7tJQRwEue-58" value="" style="endArrow=none;html=1;rounded=0;" edge="1" parent="QxMVnpEt2BW7tJQRwEue-57">
          <mxGeometry width="50" height="50" relative="1" as="geometry">
            <mxPoint y="5" as="sourcePoint" />
            <mxPoint x="20" as="targetPoint" />
          </mxGeometry>
        </mxCell>
        <mxCell id="QxMVnpEt2BW7tJQRwEue-59" value="" style="endArrow=none;html=1;rounded=0;" edge="1" parent="QxMVnpEt2BW7tJQRwEue-57">
          <mxGeometry width="50" height="50" relative="1" as="geometry">
            <mxPoint x="20" as="sourcePoint" />
            <mxPoint x="40" y="5" as="targetPoint" />
          </mxGeometry>
        </mxCell>
        <mxCell id="QxMVnpEt2BW7tJQRwEue-60" value="" style="endArrow=none;html=1;rounded=0;" edge="1" parent="QxMVnpEt2BW7tJQRwEue-57">
          <mxGeometry width="50" height="50" relative="1" as="geometry">
            <mxPoint x="40" y="5" as="sourcePoint" />
            <mxPoint x="60" y="10" as="targetPoint" />
          </mxGeometry>
        </mxCell>
        <mxCell id="QxMVnpEt2BW7tJQRwEue-61" value="" style="endArrow=none;html=1;rounded=0;" edge="1" parent="QxMVnpEt2BW7tJQRwEue-57">
          <mxGeometry width="50" height="50" relative="1" as="geometry">
            <mxPoint x="60" y="10" as="sourcePoint" />
            <mxPoint x="80" y="10" as="targetPoint" />
          </mxGeometry>
        </mxCell>
        <mxCell id="QxMVnpEt2BW7tJQRwEue-62" style="edgeStyle=orthogonalEdgeStyle;rounded=0;orthogonalLoop=1;jettySize=auto;html=1;exitX=1;exitY=0.5;exitDx=0;exitDy=0;entryX=1.002;entryY=0.306;entryDx=0;entryDy=0;dashed=1;entryPerimeter=0;" edge="1" parent="1" source="QxMVnpEt2BW7tJQRwEue-64" target="QxMVnpEt2BW7tJQRwEue-7">
          <mxGeometry relative="1" as="geometry">
            <Array as="points">
              <mxPoint x="65" y="1873" />
              <mxPoint x="65" y="1728" />
              <mxPoint x="-174" y="1728" />
            </Array>
          </mxGeometry>
        </mxCell>
        <mxCell id="QxMVnpEt2BW7tJQRwEue-63" value="&lt;font style=&quot;font-size: 13px;&quot;&gt;反向传播&lt;/font&gt;" style="edgeLabel;html=1;align=center;verticalAlign=middle;resizable=0;points=[];" vertex="1" connectable="0" parent="QxMVnpEt2BW7tJQRwEue-62">
          <mxGeometry x="0.5016" y="-2" relative="1" as="geometry">
            <mxPoint as="offset" />
          </mxGeometry>
        </mxCell>
        <mxCell id="QxMVnpEt2BW7tJQRwEue-64" value="Loss" style="rounded=0;whiteSpace=wrap;html=1;fillColor=#d0cee2;strokeColor=#56517e;" vertex="1" parent="1">
          <mxGeometry x="-73" y="1858" width="120" height="30" as="geometry" />
        </mxCell>
        <mxCell id="QxMVnpEt2BW7tJQRwEue-65" style="edgeStyle=orthogonalEdgeStyle;rounded=0;orthogonalLoop=1;jettySize=auto;html=1;exitX=0.5;exitY=0;exitDx=0;exitDy=0;entryX=0.5;entryY=1;entryDx=0;entryDy=0;" edge="1" parent="1" source="QxMVnpEt2BW7tJQRwEue-66" target="QxMVnpEt2BW7tJQRwEue-64">
          <mxGeometry relative="1" as="geometry" />
        </mxCell>
        <mxCell id="QxMVnpEt2BW7tJQRwEue-66" value="变化点权重矩阵" style="rounded=0;whiteSpace=wrap;html=1;fillColor=#bac8d3;strokeColor=#23445d;" vertex="1" parent="1">
          <mxGeometry x="-93" y="1958" width="160" height="30" as="geometry" />
        </mxCell>
        <mxCell id="QxMVnpEt2BW7tJQRwEue-67" style="edgeStyle=orthogonalEdgeStyle;rounded=0;orthogonalLoop=1;jettySize=auto;html=1;exitX=0.5;exitY=0;exitDx=0;exitDy=0;entryX=0.5;entryY=1;entryDx=0;entryDy=0;" edge="1" parent="1" source="QxMVnpEt2BW7tJQRwEue-68" target="QxMVnpEt2BW7tJQRwEue-76">
          <mxGeometry relative="1" as="geometry" />
        </mxCell>
        <mxCell id="QxMVnpEt2BW7tJQRwEue-68" value="动态阈值" style="rounded=0;whiteSpace=wrap;html=1;fillColor=#b1ddf0;strokeColor=#10739e;" vertex="1" parent="1">
          <mxGeometry x="140" y="1805" width="120" height="30" as="geometry" />
        </mxCell>
        <mxCell id="QxMVnpEt2BW7tJQRwEue-69" style="edgeStyle=orthogonalEdgeStyle;rounded=0;orthogonalLoop=1;jettySize=auto;html=1;exitX=0.5;exitY=0;exitDx=0;exitDy=0;entryX=0.5;entryY=1;entryDx=0;entryDy=0;" edge="1" parent="1" source="QxMVnpEt2BW7tJQRwEue-70" target="QxMVnpEt2BW7tJQRwEue-72">
          <mxGeometry relative="1" as="geometry" />
        </mxCell>
        <mxCell id="QxMVnpEt2BW7tJQRwEue-70" value="熵权法" style="rounded=0;whiteSpace=wrap;html=1;fillColor=#ffcc99;strokeColor=#36393d;" vertex="1" parent="1">
          <mxGeometry x="127.5" y="2008" width="145" height="32" as="geometry" />
        </mxCell>
        <mxCell id="QxMVnpEt2BW7tJQRwEue-71" style="edgeStyle=orthogonalEdgeStyle;rounded=0;orthogonalLoop=1;jettySize=auto;html=1;exitX=0.5;exitY=0;exitDx=0;exitDy=0;entryX=0.5;entryY=1;entryDx=0;entryDy=0;" edge="1" parent="1" source="QxMVnpEt2BW7tJQRwEue-72" target="QxMVnpEt2BW7tJQRwEue-82">
          <mxGeometry relative="1" as="geometry" />
        </mxCell>
        <mxCell id="QxMVnpEt2BW7tJQRwEue-72" value="熵权向量" style="rounded=0;whiteSpace=wrap;html=1;fillColor=#FFCC99;" vertex="1" parent="1">
          <mxGeometry x="135" y="1928" width="130" height="30" as="geometry" />
        </mxCell>
        <mxCell id="QxMVnpEt2BW7tJQRwEue-73" style="edgeStyle=orthogonalEdgeStyle;rounded=0;orthogonalLoop=1;jettySize=auto;html=1;exitX=1;exitY=0.5;exitDx=0;exitDy=0;entryX=1;entryY=0.5;entryDx=0;entryDy=0;" edge="1" parent="1" source="QxMVnpEt2BW7tJQRwEue-75" target="QxMVnpEt2BW7tJQRwEue-82">
          <mxGeometry relative="1" as="geometry">
            <mxPoint x="345" y="1868" as="targetPoint" />
          </mxGeometry>
        </mxCell>
        <mxCell id="QxMVnpEt2BW7tJQRwEue-74" style="edgeStyle=orthogonalEdgeStyle;rounded=0;orthogonalLoop=1;jettySize=auto;html=1;exitX=0.5;exitY=0;exitDx=0;exitDy=0;entryX=0.5;entryY=1;entryDx=0;entryDy=0;" edge="1" parent="1" source="QxMVnpEt2BW7tJQRwEue-75" target="QxMVnpEt2BW7tJQRwEue-70">
          <mxGeometry relative="1" as="geometry" />
        </mxCell>
        <mxCell id="QxMVnpEt2BW7tJQRwEue-75" value="重构误差矩阵" style="rounded=0;whiteSpace=wrap;html=1;fillColor=#fad9d5;strokeColor=#ae4132;" vertex="1" parent="1">
          <mxGeometry x="115" y="2088" width="170" height="30" as="geometry" />
        </mxCell>
        <mxCell id="QxMVnpEt2BW7tJQRwEue-76" value="异常检测" style="rounded=0;whiteSpace=wrap;html=1;fillColor=#ffcccc;strokeColor=#36393d;" vertex="1" parent="1">
          <mxGeometry x="140" y="1698" width="120" height="60" as="geometry" />
        </mxCell>
        <mxCell id="QxMVnpEt2BW7tJQRwEue-77" style="edgeStyle=orthogonalEdgeStyle;rounded=0;orthogonalLoop=1;jettySize=auto;html=1;exitX=0.5;exitY=0;exitDx=0;exitDy=0;entryX=0.5;entryY=1;entryDx=0;entryDy=0;" edge="1" parent="1" source="QxMVnpEt2BW7tJQRwEue-55" target="QxMVnpEt2BW7tJQRwEue-18">
          <mxGeometry relative="1" as="geometry" />
        </mxCell>
        <mxCell id="QxMVnpEt2BW7tJQRwEue-78" style="edgeStyle=orthogonalEdgeStyle;rounded=0;orthogonalLoop=1;jettySize=auto;html=1;exitX=0.5;exitY=0;exitDx=0;exitDy=0;entryX=0.5;entryY=1;entryDx=0;entryDy=0;" edge="1" parent="1" source="QxMVnpEt2BW7tJQRwEue-37" target="QxMVnpEt2BW7tJQRwEue-20">
          <mxGeometry relative="1" as="geometry" />
        </mxCell>
        <mxCell id="QxMVnpEt2BW7tJQRwEue-79" style="edgeStyle=orthogonalEdgeStyle;rounded=0;orthogonalLoop=1;jettySize=auto;html=1;exitX=0.5;exitY=0;exitDx=0;exitDy=0;entryX=0.5;entryY=1;entryDx=0;entryDy=0;" edge="1" parent="1" source="QxMVnpEt2BW7tJQRwEue-44" target="QxMVnpEt2BW7tJQRwEue-22">
          <mxGeometry relative="1" as="geometry" />
        </mxCell>
        <mxCell id="QxMVnpEt2BW7tJQRwEue-80" style="edgeStyle=orthogonalEdgeStyle;rounded=0;orthogonalLoop=1;jettySize=auto;html=1;exitX=0.5;exitY=0;exitDx=0;exitDy=0;entryX=0;entryY=0.5;entryDx=0;entryDy=0;" edge="1" parent="1" source="QxMVnpEt2BW7tJQRwEue-12" target="QxMVnpEt2BW7tJQRwEue-25">
          <mxGeometry relative="1" as="geometry">
            <mxPoint x="-375" y="2038" as="sourcePoint" />
            <mxPoint x="-425" y="1753" as="targetPoint" />
            <Array as="points">
              <mxPoint x="-375" y="2028" />
              <mxPoint x="-565" y="2028" />
              <mxPoint x="-565" y="1753" />
            </Array>
          </mxGeometry>
        </mxCell>
        <mxCell id="QxMVnpEt2BW7tJQRwEue-81" value="" style="group" vertex="1" connectable="0" parent="1">
          <mxGeometry x="192.5" y="1873" width="15" height="15" as="geometry" />
        </mxCell>
        <mxCell id="QxMVnpEt2BW7tJQRwEue-82" value="" style="ellipse;whiteSpace=wrap;html=1;aspect=fixed;" vertex="1" parent="QxMVnpEt2BW7tJQRwEue-81">
          <mxGeometry width="15" height="15" as="geometry" />
        </mxCell>
        <mxCell id="QxMVnpEt2BW7tJQRwEue-83" value="" style="ellipse;whiteSpace=wrap;html=1;aspect=fixed;gradientColor=none;fillColor=#000000;" vertex="1" parent="QxMVnpEt2BW7tJQRwEue-81">
          <mxGeometry x="5" y="5" width="5" height="5" as="geometry" />
        </mxCell>
        <mxCell id="QxMVnpEt2BW7tJQRwEue-84" style="edgeStyle=orthogonalEdgeStyle;rounded=0;orthogonalLoop=1;jettySize=auto;html=1;exitX=0.5;exitY=0;exitDx=0;exitDy=0;entryX=0.5;entryY=1;entryDx=0;entryDy=0;" edge="1" parent="1" source="QxMVnpEt2BW7tJQRwEue-82" target="QxMVnpEt2BW7tJQRwEue-68">
          <mxGeometry relative="1" as="geometry" />
        </mxCell>
        <mxCell id="QxMVnpEt2BW7tJQRwEue-85" value="扩散重构层" style="text;html=1;align=center;verticalAlign=middle;whiteSpace=wrap;rounded=0;" vertex="1" parent="1">
          <mxGeometry x="-595" y="1588" width="100" height="50" as="geometry" />
        </mxCell>
        <mxCell id="QxMVnpEt2BW7tJQRwEue-86" style="edgeStyle=orthogonalEdgeStyle;rounded=0;orthogonalLoop=1;jettySize=auto;html=1;exitX=1;exitY=0.5;exitDx=0;exitDy=0;entryX=0;entryY=0.5;entryDx=0;entryDy=0;" edge="1" parent="1" source="QxMVnpEt2BW7tJQRwEue-87" target="QxMVnpEt2BW7tJQRwEue-116">
          <mxGeometry relative="1" as="geometry" />
        </mxCell>
        <mxCell id="QxMVnpEt2BW7tJQRwEue-87" value="" style="rounded=1;whiteSpace=wrap;html=1;fillColor=none;dashed=1;dashPattern=8 8;" vertex="1" parent="1">
          <mxGeometry x="894" y="1880" width="140" height="30" as="geometry" />
        </mxCell>
        <mxCell id="QxMVnpEt2BW7tJQRwEue-88" value="时间步：" style="text;html=1;align=center;verticalAlign=middle;whiteSpace=wrap;rounded=0;" vertex="1" parent="1">
          <mxGeometry x="765" y="1830" width="100" height="30" as="geometry" />
        </mxCell>
        <mxCell id="QxMVnpEt2BW7tJQRwEue-89" value="去噪重构步骤1：" style="text;html=1;align=center;verticalAlign=middle;whiteSpace=wrap;rounded=0;" vertex="1" parent="1">
          <mxGeometry x="750" y="1880" width="130" height="30" as="geometry" />
        </mxCell>
        <mxCell id="QxMVnpEt2BW7tJQRwEue-90" value="去噪重构步骤2：" style="text;html=1;align=center;verticalAlign=middle;whiteSpace=wrap;rounded=0;" vertex="1" parent="1">
          <mxGeometry x="750" y="1930" width="130" height="30" as="geometry" />
        </mxCell>
        <mxCell id="QxMVnpEt2BW7tJQRwEue-91" value="去噪重构步骤N：" style="text;html=1;align=center;verticalAlign=middle;whiteSpace=wrap;rounded=0;" vertex="1" parent="1">
          <mxGeometry x="750" y="1980" width="130" height="30" as="geometry" />
        </mxCell>
        <mxCell id="QxMVnpEt2BW7tJQRwEue-92" value="初始 X：" style="text;html=1;align=center;verticalAlign=middle;whiteSpace=wrap;rounded=0;" vertex="1" parent="1">
          <mxGeometry x="765" y="2030" width="100" height="30" as="geometry" />
        </mxCell>
        <mxCell id="QxMVnpEt2BW7tJQRwEue-93" value="" style="ellipse;whiteSpace=wrap;html=1;aspect=fixed;fillColor=#f0a30a;fontColor=#000000;strokeColor=#BD7000;" vertex="1" parent="1">
          <mxGeometry x="904" y="1885" width="20" height="20" as="geometry" />
        </mxCell>
        <mxCell id="QxMVnpEt2BW7tJQRwEue-94" value="" style="whiteSpace=wrap;html=1;aspect=fixed;fillColor=#d5e8d4;strokeColor=#82b366;" vertex="1" parent="1">
          <mxGeometry x="904" y="2035" width="20" height="20" as="geometry" />
        </mxCell>
        <mxCell id="QxMVnpEt2BW7tJQRwEue-95" value="" style="whiteSpace=wrap;html=1;aspect=fixed;fillColor=#d5e8d4;strokeColor=#82b366;" vertex="1" parent="1">
          <mxGeometry x="954" y="2035" width="20" height="20" as="geometry" />
        </mxCell>
        <mxCell id="QxMVnpEt2BW7tJQRwEue-96" value="" style="whiteSpace=wrap;html=1;aspect=fixed;fillColor=#d5e8d4;strokeColor=#82b366;" vertex="1" parent="1">
          <mxGeometry x="1004" y="2035" width="20" height="20" as="geometry" />
        </mxCell>
        <mxCell id="QxMVnpEt2BW7tJQRwEue-97" value="" style="ellipse;whiteSpace=wrap;html=1;aspect=fixed;fillColor=#f0a30a;strokeColor=#BD7000;align=center;verticalAlign=middle;fontFamily=Helvetica;fontSize=12;fontColor=#000000;" vertex="1" parent="1">
          <mxGeometry x="954" y="1885" width="20" height="20" as="geometry" />
        </mxCell>
        <mxCell id="QxMVnpEt2BW7tJQRwEue-98" value="" style="ellipse;whiteSpace=wrap;html=1;aspect=fixed;strokeColor=#BD7000;align=center;verticalAlign=middle;fontFamily=Helvetica;fontSize=12;fontColor=#000000;fillColor=#f0a30a;" vertex="1" parent="1">
          <mxGeometry x="1004" y="1885" width="20" height="20" as="geometry" />
        </mxCell>
        <mxCell id="QxMVnpEt2BW7tJQRwEue-99" value="" style="ellipse;whiteSpace=wrap;html=1;aspect=fixed;fillColor=#ffe6cc;strokeColor=#d79b00;" vertex="1" parent="1">
          <mxGeometry x="904" y="1935" width="20" height="20" as="geometry" />
        </mxCell>
        <mxCell id="QxMVnpEt2BW7tJQRwEue-100" value="" style="ellipse;whiteSpace=wrap;html=1;aspect=fixed;fillColor=#ffe6cc;strokeColor=#d79b00;" vertex="1" parent="1">
          <mxGeometry x="954" y="1935" width="20" height="20" as="geometry" />
        </mxCell>
        <mxCell id="QxMVnpEt2BW7tJQRwEue-101" value="" style="ellipse;whiteSpace=wrap;html=1;aspect=fixed;fillColor=#ffe6cc;strokeColor=#d79b00;" vertex="1" parent="1">
          <mxGeometry x="1004" y="1935" width="20" height="20" as="geometry" />
        </mxCell>
        <mxCell id="QxMVnpEt2BW7tJQRwEue-102" value="" style="ellipse;whiteSpace=wrap;html=1;aspect=fixed;fillColor=#fff2cc;strokeColor=#d6b656;" vertex="1" parent="1">
          <mxGeometry x="954" y="1985" width="20" height="20" as="geometry" />
        </mxCell>
        <mxCell id="QxMVnpEt2BW7tJQRwEue-103" value="" style="ellipse;whiteSpace=wrap;html=1;aspect=fixed;fillColor=#fff2cc;strokeColor=#d6b656;" vertex="1" parent="1">
          <mxGeometry x="904" y="1985" width="20" height="20" as="geometry" />
        </mxCell>
        <mxCell id="QxMVnpEt2BW7tJQRwEue-104" value="" style="ellipse;whiteSpace=wrap;html=1;aspect=fixed;fillColor=#fff2cc;strokeColor=#d6b656;" vertex="1" parent="1">
          <mxGeometry x="1004" y="1985" width="20" height="20" as="geometry" />
        </mxCell>
        <mxCell id="QxMVnpEt2BW7tJQRwEue-105" value="1" style="shape=offPageConnector;whiteSpace=wrap;html=1;" vertex="1" parent="1">
          <mxGeometry x="904" y="1835" width="20" height="20" as="geometry" />
        </mxCell>
        <mxCell id="QxMVnpEt2BW7tJQRwEue-106" value="2" style="shape=offPageConnector;whiteSpace=wrap;html=1;" vertex="1" parent="1">
          <mxGeometry x="954" y="1835" width="20" height="20" as="geometry" />
        </mxCell>
        <mxCell id="QxMVnpEt2BW7tJQRwEue-107" value="T" style="shape=offPageConnector;whiteSpace=wrap;html=1;" vertex="1" parent="1">
          <mxGeometry x="1004" y="1835" width="20" height="20" as="geometry" />
        </mxCell>
        <mxCell id="QxMVnpEt2BW7tJQRwEue-108" style="edgeStyle=orthogonalEdgeStyle;rounded=0;orthogonalLoop=1;jettySize=auto;html=1;exitX=1;exitY=0.5;exitDx=0;exitDy=0;entryX=0;entryY=0.5;entryDx=0;entryDy=0;" edge="1" parent="1" source="QxMVnpEt2BW7tJQRwEue-109" target="QxMVnpEt2BW7tJQRwEue-117">
          <mxGeometry relative="1" as="geometry" />
        </mxCell>
        <mxCell id="QxMVnpEt2BW7tJQRwEue-109" value="" style="rounded=1;whiteSpace=wrap;html=1;fillColor=none;dashed=1;dashPattern=8 8;" vertex="1" parent="1">
          <mxGeometry x="894" y="1930" width="140" height="30" as="geometry" />
        </mxCell>
        <mxCell id="QxMVnpEt2BW7tJQRwEue-110" style="edgeStyle=orthogonalEdgeStyle;rounded=0;orthogonalLoop=1;jettySize=auto;html=1;exitX=1;exitY=0.5;exitDx=0;exitDy=0;entryX=0;entryY=0.5;entryDx=0;entryDy=0;" edge="1" parent="1" source="QxMVnpEt2BW7tJQRwEue-111" target="QxMVnpEt2BW7tJQRwEue-118">
          <mxGeometry relative="1" as="geometry" />
        </mxCell>
        <mxCell id="QxMVnpEt2BW7tJQRwEue-111" value="" style="rounded=1;whiteSpace=wrap;html=1;fillColor=none;dashed=1;dashPattern=8 8;" vertex="1" parent="1">
          <mxGeometry x="894" y="1980" width="140" height="30" as="geometry" />
        </mxCell>
        <mxCell id="QxMVnpEt2BW7tJQRwEue-112" style="edgeStyle=orthogonalEdgeStyle;rounded=0;orthogonalLoop=1;jettySize=auto;html=1;exitX=1;exitY=0.5;exitDx=0;exitDy=0;entryX=0;entryY=0.5;entryDx=0;entryDy=0;" edge="1" parent="1" source="QxMVnpEt2BW7tJQRwEue-115" target="QxMVnpEt2BW7tJQRwEue-116">
          <mxGeometry relative="1" as="geometry" />
        </mxCell>
        <mxCell id="QxMVnpEt2BW7tJQRwEue-113" style="edgeStyle=orthogonalEdgeStyle;rounded=0;orthogonalLoop=1;jettySize=auto;html=1;exitX=1;exitY=0.5;exitDx=0;exitDy=0;entryX=0;entryY=0.5;entryDx=0;entryDy=0;" edge="1" parent="1" source="QxMVnpEt2BW7tJQRwEue-115" target="QxMVnpEt2BW7tJQRwEue-117">
          <mxGeometry relative="1" as="geometry" />
        </mxCell>
        <mxCell id="QxMVnpEt2BW7tJQRwEue-114" style="edgeStyle=orthogonalEdgeStyle;rounded=0;orthogonalLoop=1;jettySize=auto;html=1;exitX=1;exitY=0.5;exitDx=0;exitDy=0;entryX=0;entryY=0.5;entryDx=0;entryDy=0;" edge="1" parent="1" source="QxMVnpEt2BW7tJQRwEue-115" target="QxMVnpEt2BW7tJQRwEue-118">
          <mxGeometry relative="1" as="geometry" />
        </mxCell>
        <mxCell id="QxMVnpEt2BW7tJQRwEue-115" value="" style="rounded=1;whiteSpace=wrap;html=1;fillColor=none;dashed=1;dashPattern=8 8;" vertex="1" parent="1">
          <mxGeometry x="894" y="2030" width="140" height="30" as="geometry" />
        </mxCell>
        <mxCell id="QxMVnpEt2BW7tJQRwEue-116" value="$$e^1$$" style="rounded=0;whiteSpace=wrap;html=1;" vertex="1" parent="1">
          <mxGeometry x="1104" y="1880" width="30" height="30" as="geometry" />
        </mxCell>
        <mxCell id="QxMVnpEt2BW7tJQRwEue-117" value="$$e^2$$" style="rounded=0;whiteSpace=wrap;html=1;" vertex="1" parent="1">
          <mxGeometry x="1104" y="1930" width="30" height="30" as="geometry" />
        </mxCell>
        <mxCell id="QxMVnpEt2BW7tJQRwEue-118" value="$$e^N$$" style="rounded=0;whiteSpace=wrap;html=1;" vertex="1" parent="1">
          <mxGeometry x="1104" y="1980" width="30" height="30" as="geometry" />
        </mxCell>
      </root>
    </mxGraphModel>
  </diagram>
</mxfile>
